<?xml version="1.0" encoding="UTF-8"?>
<svg width="512px" height="512px" viewBox="0 0 512 512" version="1.1" xmlns="http://www.w3.org/2000/svg" xmlns:xlink="http://www.w3.org/1999/xlink">
    <title>allSkins</title>
    <g id="Page-1" stroke="none" stroke-width="1" fill="none" fill-rule="evenodd">
        <g id="allSkins" fill="#000000">
            <path d="M256,0 C114.517333,0 0,114.498259 0,256 C0,397.482667 114.498259,512 256,512 C397.482667,512 512,397.503749 512,256 C512,114.517333 397.503749,0 256,0 Z M256,481.882353 C131.448471,481.882353 30.1176471,380.551529 30.1176471,256 C30.1176471,131.448471 131.448471,30.1176471 256,30.1176471 C380.551529,30.1176471 481.882353,131.448471 481.882353,256 C481.882353,380.551529 380.551529,481.882353 256,481.882353 Z" id="Shape" fill-rule="nonzero"></path>
            <g id="ALL" transform="translate(123.000000, 204.000000)" stroke="#000000" stroke-linecap="round" stroke-width="0.25">
                <path d="M0,105 L15.8507205,105 L23.3913545,79.9070771 L71.4051873,79.7531328 L78.9458213,105 L94.9504323,105 L66.7884726,14.3268 C65.9785956,11.6724332 64.6771701,9.19400326 62.9519827,7.02060293 C59.1283151,2.40575926 53.3870506,-0.182037615 47.3982709,0.00997893869 C40.3465582,-0.216740518 33.7451293,3.46700127 30.2333256,9.58839406 C29.3724025,11.0876753 28.6778251,12.6765733 28.1619597,14.3268 L0,105 Z M131.730259,1.85731069 L116.033429,1.85731069 L116.033429,90.8371233 C115.99476,92.9226401 116.287199,95.0010819 116.899833,96.9948958 C118.50645,101.870312 122.456818,104.773702 129.631193,104.987684 C129.92043,104.996106 130.209776,105.000008 130.499135,105.000008 L182.975793,105.000008 L182.975793,90.5292346 L131.730259,90.5292346 L131.730259,1.85731069 Z M215.754467,1.85731069 L200.057637,1.85731069 L200.057637,90.8371233 C200.018968,92.9226401 200.311406,95.0010819 200.92404,96.9948958 C202.530657,101.870312 206.481026,104.773702 213.655401,104.987684 C213.944637,104.996106 214.233984,105.000008 214.523343,105.000008 L267,105.000008 L267,90.5292346 L215.754467,90.5292346 L215.754467,1.85731069 Z M53.4,18.9451294 L67.2501441,65.590256 L27.7002882,65.590256 L41.7043228,18.9451294 C41.9034556,18.2136321 42.192949,17.5098137 42.5661095,16.8499473 C43.6202594,15.0441805 45.2376484,14.1728557 47.5521614,14.1728557 C48.401026,14.156743 49.2438905,14.3182437 50.0267205,14.6470042 C51.5379251,15.3089647 52.6136196,16.6759902 53.3476772,18.7911851 C53.3654274,18.8423941 53.3828686,18.8937098 53.4,18.9451294 L53.4,18.9451294 Z" id="Shape"></path>
            </g>
        </g>
    </g>
</svg>