<svg width="150" height="174" viewBox="0 0 150 174" fill="none" xmlns="http://www.w3.org/2000/svg">
<path d="M70.5735 170.876L6.46074 133.364C4.9236 132.461 3.64733 131.165 2.75963 129.606C1.87194 128.047 1.4039 126.278 1.40237 124.478V49.4849C1.39865 47.6797 1.86419 45.9052 2.75215 44.3402C3.64011 42.7752 4.9192 41.4747 6.46074 40.5693L70.5735 3.08773C72.116 2.18546 73.8656 1.71045 75.6467 1.71045C77.4279 1.71045 79.1776 2.18546 80.7201 3.08773L144.803 40.5997C146.344 41.5049 147.623 42.8056 148.511 44.3706C149.399 45.9356 149.865 47.71 149.861 49.5152V124.478C149.865 126.284 149.399 128.058 148.511 129.623C147.623 131.188 146.344 132.489 144.803 133.394L80.7201 170.876C79.1776 171.778 77.4279 172.253 75.6467 172.253C73.8656 172.253 72.116 171.778 70.5735 170.876Z" fill="#FEFEFE"/>
<path d="M60.6811 125.132C58.5796 125.132 56.8768 123.404 56.8768 121.274V54.2184C56.8768 52.0925 57.6768 50.6877 59.493 49.6232L87.0462 33.4877C88.8641 32.4232 90.4655 32.4232 92.2832 33.4877L105.345 41.1373C107.161 42.2018 107.961 43.6066 107.961 45.7325V121.274C107.961 123.403 106.257 125.13 104.156 125.13C102.054 125.13 100.35 123.403 100.35 121.274V47.1186L89.6637 40.8602L64.4886 55.6045V121.272C64.4886 123.401 62.7841 125.128 60.6828 125.128L60.6811 125.132ZM60.6825 142.104C59.9662 142.104 59.2961 141.907 58.7228 141.558L45.0028 133.523C43.1864 132.458 42.3866 131.053 42.3866 128.927V45.7372C42.3866 43.6111 43.1866 42.2065 45.0028 41.1418L58.7228 33.1066C59.2961 32.7573 59.9662 32.5563 60.6825 32.5563C62.7839 32.5563 64.4882 34.2831 64.4882 36.4122C64.4882 37.8636 63.6959 39.1279 62.5259 39.7856L49.9968 47.1222V127.538L62.5259 134.874C63.6959 135.532 64.4882 136.796 64.4882 138.248C64.4882 140.377 62.7839 142.104 60.6825 142.104ZM75.1753 142.108C73.0739 142.108 71.3711 140.379 71.3711 138.25V96.6554C71.3711 94.5295 72.1711 93.1247 73.9873 92.0602L87.7462 83.9916C88.3461 83.6407 88.9998 83.4745 89.6459 83.4745C90.9607 83.4745 92.2398 84.1656 92.9443 85.4025C93.2905 86.0102 93.4546 86.6725 93.4546 87.3272L93.4727 129.764C93.4727 131.893 91.7682 133.62 89.6668 133.62C87.5655 133.62 85.8611 131.893 85.8611 129.764V94.0132L78.9809 98.0429V138.252C78.9809 140.381 77.2766 142.108 75.1753 142.108ZM75.1753 82.7002C73.0739 82.7002 71.3711 80.9716 71.3711 78.8425V62.707C71.3711 60.5811 72.1725 59.1779 73.9887 58.1118L87.7477 50.0432C88.3477 49.6925 89.0012 49.5263 89.6475 49.5263C90.9623 49.5263 92.2414 50.2173 92.9457 51.4541C93.2921 52.062 93.4562 52.7241 93.4562 53.3788L93.4741 70.3566C93.4741 72.4856 91.7682 74.2123 89.6668 74.2123C87.5655 74.2123 85.8611 72.4856 85.8611 70.3566V60.0654L78.9809 64.095V78.844C78.9809 80.9729 77.2766 82.7002 75.1753 82.7002Z" fill="black"/>
</svg>
