<svg xmlns="http://www.w3.org/2000/svg" version="1.1" xmlns:xlink="http://www.w3.org/1999/xlink" xmlns:svgjs="http://svgjs.com/svgjs" width="512" height="512" x="0" y="0" viewBox="0 0 512 512" style="enable-background:new 0 0 512 512" xml:space="preserve" class=""><g><path fill="#97da7b" fill-rule="evenodd" d="M13.046 367.258c-11.559 11.571-7.81 25.53 11.246 26.469l54.272 6.88c18.801 2.36 15.052 3.156 17.296 21.038l5.737 49.469c.966 19.105 14.91 22.83 26.44 11.258l38.567-38.58 39.476-39.547c-3.436-1.279-6.958-3.213-10.139-5.942l-28.002-70.706-85.512-29.795z" clip-rule="evenodd" data-original="#97da7b"></path><path fill="#68ca44" fill-rule="evenodd" d="M134.115 419.655 99.637 454.17l1.96 16.944c.966 19.105 14.91 22.83 26.44 11.258l38.567-38.58 39.476-39.547c-3.436-1.279-6.958-3.213-10.139-5.942l-22.322-18.195z" clip-rule="evenodd" data-original="#68ca44"></path><path fill="#68ca44" d="M114.745 489.045c-1.404 0-2.762-.241-4.045-.734-5.411-2.078-8.771-8.344-9.218-17.191l-1.965-16.992.039-.039 74.055-74.135.08.066 22.322 18.195c2.952 2.533 6.351 4.525 10.106 5.924l.167.062-.126.126-39.476 39.547-38.567 38.58c-4.275 4.291-9.037 6.591-13.372 6.591zm-14.987-34.833 1.953 16.889c.443 8.76 3.749 14.953 9.072 16.996 5.158 1.981 11.578-.19 17.173-5.805l38.567-38.58 39.351-39.42c-3.714-1.405-7.08-3.389-10.006-5.9l-22.24-18.128-39.431 39.473-.081-.081.081.081z" data-original="#68ca44"></path><g fill-rule="evenodd" clip-rule="evenodd"><path fill="#97da7b" d="m305.906 404.246 39.504 39.547 38.539 38.58c11.559 11.571 25.503 7.847 26.469-11.258l5.708-49.469c2.244-17.883-1.505-18.679 17.324-21.038l54.244-6.88c19.085-.938 22.805-14.898 11.275-26.469l-69.835-69.91-93.322 9.467z" data-original="#97da7b"></path><path fill="#68ca44" d="m402.494 329.076 66.882 66.982 18.318-2.331c19.085-.938 22.805-14.898 11.275-26.469l-69.835-69.91-52.966 5.373z" data-original="#68ca44"></path><path fill="#ffa799" d="m270.69 26.662 25.986 12.282 36.806 2.36c5.226.341 16.614 4.179 23.686 14.101l17.324 23 31.467 19.247c4.487 2.729 12.808 11.429 14.456 23.54l4.686 28.43 18.971 31.728c2.698 4.52 6.021 16.092 1.874 27.549l-9.031 27.378 2.102 36.931c.312 5.26-2.102 17.058-11.076 25.303l-20.675 20.015-15.251 33.69c-2.158 4.776-9.77 14.13-21.527 17.2l-27.605 8.103-29.081 22.716c-4.146 3.241-15.194 7.961-27.065 5.203l-28.173-5.686-36.267 6.539c-5.169.938-17.154-.028-26.355-7.989l-22.322-18.195-35.159-11.116c-4.998-1.564-15.137-8.017-19.624-19.361l-11.332-26.526-25.986-26.213c-3.692-3.753-9.713-14.187-8.406-26.327l2.244-28.743-10.849-35.339c-1.562-5.032-2.045-17.087 4.714-27.236l15.308-24.393 6.759-36.362c.966-5.174 6.134-16.063 16.813-21.891l24.85-14.499 22.833-29.027c3.238-4.122 12.865-11.372 25.02-11.543l28.712-1.251 33.682-15.068c4.771-2.132 16.642-4.065 27.491 1.45z" data-original="#ffa799" class=""></path><path fill="#ff646f" d="M255.723 363.051c81.763 0 148.049-66.356 148.049-148.236 0-81.851-66.285-148.207-148.049-148.207-81.792 0-148.077 66.356-148.077 148.207 0 81.879 66.285 148.236 148.077 148.236z" data-original="#ff646f" class=""></path><path fill="#fc2b3a" d="M403.772 214.815c0-66.982-44.389-123.587-105.335-141.924 28.627 40.968 46.292 97.175 46.292 159.238 0 33.605-5.169 65.504-14.484 94.19a265.943 265.943 0 0 1-7.696 20.811c21.698-11.003 40.328-27.208 54.244-46.967 16.982-24.109 26.979-53.563 26.979-85.348z" data-original="#fc2b3a" class=""></path><path fill="#ff9084" d="M445.945 208.901c4.146-11.457.824-23.029-1.874-27.549L425.1 149.624l-4.686-28.43c-1.647-12.111-9.968-20.811-14.456-23.54l-31.467-19.247-17.324-23c-7.072-9.922-18.46-13.76-23.686-14.101l-36.806-2.36-25.985-12.284c-8.236-4.179-17.068-4.094-22.919-2.843 19.085 11.685 36.267 28.43 50.665 49.071 60.946 18.338 105.335 74.942 105.335 141.924 0 31.785-9.997 61.239-26.98 85.348-13.916 19.759-32.546 35.964-54.244 46.967-3.834 9.155-8.094 17.94-12.78 26.213-6.646 11.77-14.086 22.574-22.237 32.268 5.623 1.166 11.048.654 15.563-.512 4.8-1.251 8.634-3.241 10.707-4.862l29.081-22.716 27.605-8.103c11.758-3.07 19.369-12.424 21.527-17.2l15.251-33.69 19.993-19.39.682-.625c8.974-8.245 11.388-20.043 11.076-25.303l-2.102-36.931z" data-original="#ff9084"></path><path fill="#ffa799" d="M312.722 247.68c0-15.409-5.708-27.123-17.182-35.112-2.414-1.82-5.595-3.696-9.514-5.658 7.242-6.056 12.155-12.253 14.711-18.593 1.051-2.701 1.818-5.316 2.272-7.79.454-2.502.682-4.947.682-7.364 0-12.396-4.658-22.687-13.916-30.932-9.287-8.216-20.874-12.339-34.733-12.339-13.121 0-24.935 3.952-35.415 11.884s-15.734 16.66-15.734 26.156c0 4.691 1.448 8.7 4.317 12.026 3.152 3.156 6.93 4.748 11.303 4.748 5.14 0 9.883-2.871 14.257-8.614 6.475-8.444 13.121-12.68 19.908-12.68 4.516 0 8.151 1.365 10.849 4.066 3.039 2.587 4.544 5.97 4.544 10.207 0 8.444-5.51 13.817-16.529 16.092-7.98 1.791-12.894 4.52-14.711 8.131-1.193 2.274-1.789 5.061-1.789 8.387 0 11.031 5.879 16.546 17.636 16.546 14.484 1.365 21.726 7.619 21.726 18.792 0 5.743-2.016 10.406-5.992 14.045-4.004 3.611-8.861 5.43-14.598 5.43-8.463 0-15.478-3.923-21.044-11.77l-3.607-5.203c-3.948-5.743-8.69-8.614-14.257-8.614-4.686 0-8.719 1.706-12.127 5.089-3.38 3.412-5.084 7.506-5.084 12.339 0 9.211 5.595 18.792 16.756 28.772 10.707 9.354 23.742 14.045 39.135 14.045 16.444 0 30.246-5.061 41.407-15.182 11.162-10.122 16.729-22.404 16.729-36.904z" data-original="#ffa799" class=""></path><path fill="#ff9084" d="M295.994 284.583c11.161-10.121 16.728-22.403 16.728-36.903 0-15.409-5.708-27.123-17.182-35.112-2.414-1.82-5.595-3.696-9.514-5.658 7.242-6.056 12.155-12.253 14.711-18.593 1.051-2.701 1.818-5.316 2.272-7.79.454-2.502.682-4.947.682-7.364 0-12.396-4.658-22.687-13.916-30.932-6.788-5.999-14.768-9.808-23.998-11.429 2.471 15.779 3.777 32.183 3.777 49.042 0 17.144-1.335 33.861-3.919 49.924 6.504 3.099 9.77 8.387 9.77 15.864 0 5.743-2.016 10.406-5.992 14.045-3.266 2.957-7.128 4.719-11.559 5.26-3.436 11.941-7.583 23.398-12.354 34.259 2.925.37 5.964.569 9.088.569 16.443 0 30.245-5.061 41.406-15.182z" data-original="#ff9084"></path></g><path d="m503.282 361.448-64.75-64.82c6.14-9.152 7.538-19.087 7.252-23.917l-2.011-35.34 8.511-25.801c5.234-14.593.645-28.464-2.525-33.776l-18.154-30.361-4.416-26.794c-2.141-15.423-12.663-25.557-17.923-28.756L379.16 73.468l-16.327-21.675c-9.041-12.619-23.038-16.713-29.196-17.114l-35.209-2.258-24.476-11.568c-13.836-6.986-28.14-4.077-33.784-1.555l-32.223 14.415-27.045 1.178c-15.5.264-26.811 9.514-30.629 14.376l-21.848 27.774-23.414 13.662c-13.582 7.463-19.315 20.909-20.451 26.996l-6.467 34.792-14.427 22.989c-8.586 12.969-7.396 27.549-5.568 33.436l10.381 33.816-2.114 27.084c-1.194 11.403 2.767 21.158 6.676 27.257L8.732 361.448c-7.799 7.808-10.598 17.281-7.486 25.343 3.157 8.181 11.662 13.232 23.357 13.887l53.775 6.817c2.305.289 7.367.925 9.366 1.587.199 1.067.358 3.017.503 4.778.176 2.154.395 4.835.787 7.956l5.686 49.026c.66 11.752 5.729 20.285 13.931 23.434a18.598 18.598 0 0 0 6.701 1.231c6.287 0 12.882-3.037 18.573-8.748l21.691-21.685a7.557 7.557 0 0 0-10.686-10.688l-21.701 21.695c-3.329 3.341-6.925 4.944-9.16 4.085-1.846-.708-3.936-3.798-4.267-10.343a7.215 7.215 0 0 0-.041-.489l-5.721-49.329c-.36-2.867-.556-5.263-.728-7.377-.489-5.978-.911-11.14-5.346-14.93-3.889-3.323-9.261-4.141-17.695-5.199l-54.042-6.851a7.452 7.452 0 0 0-.579-.051c-6.511-.321-9.591-2.405-10.303-4.249-.868-2.25.733-5.869 4.079-9.218l63.716-63.784 18.611 18.774 10.678 24.996c5.769 14.473 18.392 21.773 24.251 23.606l33.632 10.633 21.032 17.143a39.53 39.53 0 0 0 2.464 1.931l-24.058 24.105a7.556 7.556 0 0 0 5.349 12.895c1.937 0 3.873-.74 5.349-2.219l27.967-28.023c3.817.947 7.388 1.303 10.336 1.303 2 0 3.714-.159 5.029-.398l34.691-6.255 26.534 5.355c6.734 1.543 13.083 1.155 18.488-.084l74.564 74.644c5.709 5.715 12.311 8.751 18.6 8.751 2.299 0 4.558-.406 6.714-1.236 8.197-3.153 13.262-11.686 13.922-23.432l5.649-48.953c.4-3.187.619-5.866.795-8.018.144-1.763.304-3.716.504-4.783 2.001-.664 7.082-1.3 9.404-1.591l53.737-6.816c11.698-.654 20.205-5.701 23.367-13.876 3.115-8.052.325-17.528-7.469-25.35zm-214.967 36a7.45 7.45 0 0 0-.215-.047l-28.053-5.662a7.536 7.536 0 0 0-2.836-.029l-36.121 6.513c-2.218.403-6.932.238-11.917-1.589-.06-.025-.122-.045-.182-.068-2.663-.996-5.394-2.461-7.859-4.586l-.16-.134-22.228-18.118a7.57 7.57 0 0 0-2.496-1.348l-35.031-11.075c-3.313-1.036-11.283-6.029-14.77-14.846a7.538 7.538 0 0 0-.078-.189l-11.283-26.413a7.556 7.556 0 0 0-1.583-2.352l-24.929-25.146c-.024-.024-.044-.051-.068-.075-.02-.02-.042-.036-.062-.056l-.797-.804c-2.473-2.514-7.253-10.735-6.244-20.106.008-.074.015-.147.021-.221l2.234-28.621a7.547 7.547 0 0 0-.31-2.806l-10.81-35.211c-1.039-3.346-1.485-12.806 3.767-20.691.038-.057.075-.114.111-.172l15.242-24.29c.506-.806.855-1.7 1.029-2.636l6.729-36.203c.644-3.448 4.652-12.032 12.933-16.551l.188-.106 24.744-14.438a7.545 7.545 0 0 0 2.131-1.855l22.74-28.909c2.16-2.751 9.665-8.473 19.076-8.605.074-.001.149-.003.223-.006l28.59-1.246a7.55 7.55 0 0 0 2.757-.652l33.536-15.003c1.631-.729 4.865-1.494 8.758-1.494 3.709 0 8.016.695 12.108 2.775.065.033.13.065.196.096l25.876 12.229a7.546 7.546 0 0 0 2.745.709l36.642 2.35c3.478.227 12.435 3.186 17.922 10.886l.118.161L367.95 83.71a7.546 7.546 0 0 0 2.093 1.9l31.349 19.176c2.983 1.814 9.554 8.6 10.833 18.001l.032.211 4.666 28.31c.154.936.484 1.835.97 2.649l18.887 31.588c1.797 3.01 4.466 12.102 1.25 20.988l-.071.204-8.993 27.262a7.56 7.56 0 0 0-.368 2.797l2.094 36.792c.207 3.491-1.621 12.773-8.598 19.182-.049.044-.097.09-.144.136l-20.587 19.93a7.547 7.547 0 0 0-1.628 2.313L384.546 348.7c-1.442 3.192-7.362 10.552-16.458 12.927l-.219.061-27.487 8.068a7.54 7.54 0 0 0-2.524 1.296l-28.96 22.621c-1.015.794-2.837 1.804-5.188 2.658a7.429 7.429 0 0 0-.93.315c-3.93 1.281-9.103 2.048-14.465.802zm208.338-16.098c-.713 1.843-3.797 3.926-10.315 4.247a7.054 7.054 0 0 0-.58.051l-54.002 6.849c-8.455 1.06-13.836 1.877-17.727 5.199-4.442 3.791-4.865 8.957-5.354 14.939-.173 2.112-.369 4.506-.737 7.443l-5.684 49.259a7.15 7.15 0 0 0-.04.485c-.331 6.543-2.421 9.632-4.267 10.342-2.243.862-5.851-.743-9.196-4.091l-70.471-70.547 27.747-21.673 25.999-7.631c14.975-3.959 23.747-15.653 26.294-21.292l14.593-32.235 15.4-14.909 64.269 64.338c3.344 3.354 4.941 6.976 4.071 9.226z" fill="#000000" data-original="#000000" class=""></path><path d="M410.701 214.993c0-85.542-69.522-155.135-154.977-155.135-17.129 0-33.972 2.784-50.063 8.275a7.556 7.556 0 1 0 4.882 14.304c14.516-4.953 29.717-7.465 45.181-7.465 77.12 0 139.862 62.813 139.862 140.021 0 77.223-62.742 140.049-139.862 140.049-77.136 0-139.89-62.826-139.89-140.049 0-47.256 23.583-91.007 63.085-117.034a7.557 7.557 0 1 0-8.315-12.621c-43.759 28.832-69.884 77.302-69.884 129.655 0 85.557 69.535 155.163 155.005 155.163 85.453 0 154.976-69.605 154.976-155.163z" fill="#000000" data-original="#000000" class=""></path><path d="M254.819 257.516c-5.96 0-10.66-2.712-14.744-8.469l-3.574-5.156c-6.735-9.797-14.824-11.854-20.424-11.854-6.692 0-12.546 2.443-17.445 7.307-4.81 4.857-7.25 10.78-7.25 17.604 0 11.355 6.461 22.889 19.27 34.341 12.04 10.517 26.824 15.851 43.941 15.851 18.232 0 33.812-5.746 46.307-17.076 12.699-11.515 19.137-25.761 19.137-42.344 0-17.863-6.806-31.685-20.233-41.085a44.154 44.154 0 0 0-1.421-1.019c4.155-4.61 7.234-9.377 9.206-14.268 1.225-3.149 2.117-6.221 2.655-9.146.531-2.923.8-5.845.8-8.682 0-14.499-5.514-26.761-16.406-36.461-10.638-9.411-23.959-14.183-39.593-14.183-14.709 0-28.108 4.496-39.825 13.365-12.384 9.373-18.663 20.164-18.663 32.07 0 6.502 2.063 12.192 6.132 16.91.121.14.247.275.377.406 4.538 4.542 10.279 6.944 16.601 6.944 7.569 0 14.369-3.888 20.193-11.536 4.919-6.415 9.571-9.668 13.827-9.668 3.25 0 4.67 1.046 5.456 1.832.144.144.293.282.448.413.969.825 1.866 1.93 1.866 4.409 0 2.1 0 6.47-10.429 8.622l-.127.027c-10.332 2.319-16.781 6.248-19.713 12.012-1.738 3.337-2.619 7.31-2.619 11.81 0 15.15 9.009 23.892 24.734 24.031 14.46 1.456 14.46 7.759 14.46 11.157 0 3.545-1.116 6.217-3.47 8.372-2.619 2.363-5.63 3.464-9.474 3.464zm-.422-38.072a7.613 7.613 0 0 0-.709-.033c-8.457 0-10.004-3.004-10.004-8.919 0-2.053.309-3.682.917-4.842l.057-.111c.011-.022 1.345-2.269 9.494-4.107 19.505-4.054 22.421-16.404 22.421-23.411 0-6.308-2.403-11.736-6.954-15.72-4.073-3.959-9.574-6.049-15.93-6.049-9.203 0-17.891 5.243-25.836 15.605-2.829 3.715-5.583 5.599-8.184 5.599-2.261 0-4.034-.717-5.71-2.316-1.559-1.9-2.287-4.078-2.287-6.829 0-7.017 4.145-13.566 12.67-20.019 9.158-6.932 19.202-10.302 30.703-10.302 12.001 0 21.676 3.398 29.559 10.372 7.621 6.786 11.325 15.016 11.325 25.157 0 1.962-.182 3.918-.554 5.966-.363 1.973-.992 4.121-1.838 6.297-2.059 5.106-6.26 10.335-12.488 15.543a7.555 7.555 0 0 0 1.465 12.555c3.542 1.773 6.338 3.425 8.309 4.911.075.057.152.113.23.166 9.333 6.499 13.87 15.907 13.87 28.761 0 12.309-4.637 22.497-14.176 31.147-9.764 8.854-21.59 13.158-36.154 13.158-13.542 0-24.662-3.964-33.932-12.062-9.399-8.403-14.164-16.147-14.164-23.015 0-2.812.887-4.962 2.828-6.923 2.002-1.987 4.084-2.873 6.751-2.873 1.856 0 4.702.55 7.985 5.326l3.638 5.248c6.917 9.751 16.295 14.905 27.119 14.905 7.593 0 14.186-2.474 19.638-7.39 5.509-5.043 8.422-11.807 8.422-19.56.001-8.795-3.7-23.9-28.481-26.235z" fill="#000000" data-original="#000000" class=""></path></g></svg>