<svg xmlns="http://www.w3.org/2000/svg" version="1.1" xmlns:xlink="http://www.w3.org/1999/xlink" xmlns:svgjs="http://svgjs.com/svgjs" width="512" height="512" x="0" y="0" viewBox="0 0 256 256" style="enable-background:new 0 0 512 512" xml:space="preserve" class=""><g><path d="M127.97 6.913C61.225 6.913 6.913 61.255 6.913 128.03c0 66.745 54.312 121.057 121.057 121.057 66.775 0 121.116-54.312 121.116-121.057.001-66.775-54.341-121.117-121.116-121.117zm69.965 186.946-9.037-9.008c-1.152-1.152-3.012-1.152-4.194 0a2.94 2.94 0 0 0 0 4.164l9.037 9.008c-16.539 15.534-38.571 25.281-62.818 26.019v-12.729a2.943 2.943 0 0 0-2.953-2.953 2.924 2.924 0 0 0-2.953 2.953v12.729c-24.277-.738-46.279-10.484-62.818-26.019l9.008-9.008a2.94 2.94 0 0 0 0-4.164c-1.152-1.181-3.012-1.181-4.194 0l-8.978 8.978c-15.564-16.509-25.34-38.541-26.078-62.788h12.788a2.962 2.962 0 0 0 2.953-2.953 2.943 2.943 0 0 0-2.953-2.953H31.957c.709-24.276 10.455-46.308 26.019-62.877l9.037 9.067c1.181 1.152 3.042 1.152 4.194 0s1.152-3.012 0-4.164l-9.067-9.067c16.539-15.623 38.571-25.399 62.877-26.137v12.906a2.943 2.943 0 0 0 2.953 2.953 2.962 2.962 0 0 0 2.953-2.953V31.957c24.276.738 46.338 10.514 62.877 26.108l-9.096 9.096a2.94 2.94 0 0 0 0 4.164c1.181 1.152 3.042 1.152 4.194 0l9.096-9.096c15.564 16.568 25.34 38.6 26.048 62.906h-12.847c-1.654 0-2.953 1.329-2.953 2.953s1.299 2.953 2.953 2.953h12.847c-.738 24.277-10.543 46.28-26.107 62.818z" fill="#000000" data-original="#000000" class=""></path><path d="M141.379 128c0 6.763-5.493 12.227-12.227 12.227-5.729 0-10.514-3.958-11.843-9.274H80.304A2.943 2.943 0 0 1 77.351 128a2.962 2.962 0 0 1 2.953-2.953h37.005a12.235 12.235 0 0 1 8.89-8.89V72.241a2.943 2.943 0 0 1 2.953-2.953 2.962 2.962 0 0 1 2.953 2.953v43.916c5.316 1.329 9.274 6.114 9.274 11.843z" fill="#000000" data-original="#000000" class=""></path></g></svg>