<svg xmlns="http://www.w3.org/2000/svg" version="1.1" xmlns:xlink="http://www.w3.org/1999/xlink" xmlns:svgjs="http://svgjs.com/svgjs" width="512" height="512" x="0" y="0" viewBox="0 0 512 512" style="enable-background:new 0 0 512 512" xml:space="preserve" class=""><g><path d="M325.182 415.888v46.011c0 12.549-10.171 22.72-22.72 22.72H30.373c-12.549 0-22.72-10.171-22.72-22.72v-46.011c0-12.538 10.171-22.71 22.72-22.71h272.089c12.548 0 22.72 10.172 22.72 22.71z" style="" fill="#dd9f3a" data-original="#dd9f3a" class=""></path><path d="M325.183 415.889V461.9c0 11.732-8.896 21.394-20.312 22.598-.796.082-1.592.122-2.408.122H86.291c-12.538 0-22.71-10.171-22.71-22.72v-46.011c0-12.538 10.171-22.71 22.71-22.71h216.172c12.548 0 22.72 10.172 22.72 22.71z" style="" fill="#f4b74a" data-original="#f4b74a" class=""></path><path d="M325.183 415.889V461.9c0 11.732-8.896 21.394-20.312 22.598-2.071.082-4.142.122-6.213.122-21.955 0-43.91-4.52-64.355-13.579-13.722-6.07-26.74-14.191-38.635-24.342a162.37 162.37 0 0 1-9.274-8.57c-13.436-13.436-23.954-28.678-31.565-44.95h147.634c12.548 0 22.72 10.172 22.72 22.71zM340.486 324.44v46.011c0 12.549-10.171 22.72-22.72 22.72H45.677c-12.549 0-22.72-10.171-22.72-22.72V324.44c0-12.538 10.171-22.71 22.72-22.71h272.089c12.548 0 22.72 10.171 22.72 22.71z" style="" fill="#dd9f3a" data-original="#dd9f3a" class=""></path><path d="M325.183 324.438v46.011c0 12.549-10.171 22.72-22.72 22.72H86.291c-12.538 0-22.71-10.171-22.71-22.72v-46.011c0-12.538 10.171-22.71 22.71-22.71h216.172c12.548 0 22.72 10.171 22.72 22.71z" style="" fill="#f4b74a" data-original="#f4b74a" class=""></path><path d="M325.183 324.438v46.011c0 12.549-10.171 22.72-22.72 22.72H170.111c-13.436-28.719-17.803-60.641-13.089-91.441h145.441c12.548 0 22.72 10.171 22.72 22.71zM325.182 50.096v46.011c0 12.549-10.171 22.72-22.72 22.72H30.373c-12.549 0-22.72-10.171-22.72-22.72V50.096c0-12.538 10.171-22.71 22.72-22.71h272.089c12.548 0 22.72 10.171 22.72 22.71z" style="" fill="#dd9f3a" data-original="#dd9f3a" class=""></path><path d="M325.182 50.096v46.011c0 12.549-10.171 22.72-22.72 22.72H86.29c-12.538 0-22.71-10.171-22.71-22.72V50.096c0-12.538 10.171-22.71 22.71-22.71h216.172c12.548 0 22.72 10.171 22.72 22.71z" style="" fill="#f4b74a" data-original="#f4b74a" class=""></path><path d="M254.511 27.382h33.324v91.451h-33.324zM213.366 27.382h16.662v91.451h-16.662z" style="" fill="#f9c662" data-original="#f9c662" class=""></path><path d="M365.992 141.544v46.011c0 12.549-10.171 22.72-22.72 22.72H71.183c-12.549 0-22.72-10.171-22.72-22.72v-46.011c0-12.538 10.171-22.71 22.72-22.71h272.089c12.55 0 22.72 10.172 22.72 22.71z" style="" fill="#dd9f3a" data-original="#dd9f3a" class=""></path><path d="M365.991 141.545v46.011c0 12.549-10.171 22.72-22.72 22.72H127.099c-12.538 0-22.71-10.171-22.71-22.72v-46.011c0-12.538 10.171-22.71 22.71-22.71h216.172c12.549 0 22.72 10.172 22.72 22.71z" style="" fill="#f4b74a" data-original="#f4b74a" class=""></path><path d="M294.646 118.836h33.324v91.451h-33.324zM253.491 118.836h16.662v91.451h-16.662z" style="" fill="#f9c662" data-original="#f9c662" class=""></path><path d="M365.991 172.692v14.864c0 12.549-10.171 22.72-22.72 22.72H215.327c41.512-39.135 98.95-51.663 150.664-37.584zM325.182 232.991v46.011c0 12.549-10.171 22.72-22.72 22.72H30.373c-12.549 0-22.72-10.171-22.72-22.72v-46.011c0-12.538 10.171-22.71 22.72-22.71h272.089c12.548 0 22.72 10.172 22.72 22.71z" style="" fill="#dd9f3a" data-original="#dd9f3a" class=""></path><path d="M325.183 232.996v46.011c0 12.549-10.171 22.72-22.72 22.72H86.291c-12.538 0-22.71-10.171-22.71-22.72v-46.011c0-12.538 10.171-22.71 22.71-22.71h216.172c12.548.001 22.72 10.172 22.72 22.71z" style="" fill="#f4b74a" data-original="#f4b74a" class=""></path><path d="M325.183 232.996v46.011c0 12.549-10.171 22.72-22.72 22.72H141.719c4.928-32.259 19.823-63.283 44.665-88.125a150.04 150.04 0 0 1 3.428-3.316h112.651c12.548.001 22.72 10.172 22.72 22.71z" style="" fill="#dd9f3a" data-original="#dd9f3a" class=""></path><path d="M457.849 438.125c-47.756 47.748-118.353 58.724-176.613 32.915a157.719 157.719 0 0 1-38.635-24.338 160.878 160.878 0 0 1-9.281-8.577c-61.997-62.005-61.997-162.524 0-224.529 62.005-61.997 162.524-61.997 224.529 0a158.42 158.42 0 0 1 8.577 9.281 157.55 157.55 0 0 1 24.338 38.635c25.81 58.252 14.833 128.857-32.915 176.613z" style="" fill="#f4b74a" data-original="#f4b74a" class=""></path><path d="M490.763 261.511 281.236 471.039a157.719 157.719 0 0 1-38.635-24.338l223.825-223.824a157.57 157.57 0 0 1 24.337 38.634z" style="" fill="#f9c662" data-original="#f9c662" class=""></path><path d="M457.848 325.861c0 62.001-50.263 112.264-112.264 112.264-34.998 0-66.251-16.01-86.844-41.113-15.891-19.369-25.419-44.147-25.419-71.15 0-62.001 50.263-112.264 112.264-112.264 27.01 0 51.79 9.543 71.156 25.434 25.096 20.584 41.107 51.838 41.107 86.829z" style="" fill="#ffd488" data-original="#ffd488" class=""></path><path d="M416.741 239.031 258.755 397.017l-.014-.007a111.836 111.836 0 0 1-12.203-18.263 111.123 111.123 0 0 1-9.332-23.506 112.43 112.43 0 0 1-3.885-29.382c0-62.001 50.263-112.264 112.264-112.264 10.169 0 20.022 1.351 29.382 3.885a111.165 111.165 0 0 1 23.506 9.339 112.403 112.403 0 0 1 18.268 12.212z" style="" fill="#f9c662" data-original="#f9c662" class=""></path><path d="M398.472 226.821 246.538 378.747a111.123 111.123 0 0 1-9.332-23.506l137.761-137.76a111.18 111.18 0 0 1 23.505 9.34z" style="" fill="#ffd488" data-original="#ffd488" class=""></path><path d="M263.69 476.97H30.371c-8.309 0-15.067-6.759-15.067-15.066v-46.011c0-8.308 6.759-15.067 15.067-15.067h147.964c4.227 0 7.652-3.426 7.652-7.652s-3.425-7.652-7.652-7.652H45.675c-8.309 0-15.067-6.759-15.067-15.067v-46.011c0-8.308 6.759-15.067 15.067-15.067h118.717a7.651 7.651 0 0 0 7.652-7.652 7.651 7.651 0 0 0-7.652-7.652H30.371c-8.309 0-15.067-6.759-15.067-15.067v-46.011c0-8.308 6.759-15.067 15.067-15.067h177.38a7.651 7.651 0 0 0 7.652-7.652 7.651 7.651 0 0 0-7.652-7.652H71.181c-8.309 0-15.067-6.759-15.067-15.067v-46.011c0-8.308 6.759-15.067 15.067-15.067h272.091c8.309 0 15.067 6.759 15.067 15.067v5.707c0 4.226 3.425 7.652 7.652 7.652s7.652-3.426 7.652-7.652v-5.707c0-16.747-13.624-30.371-30.371-30.371h-14.459a30.172 30.172 0 0 0 4.018-15.067V50.095c0-16.747-13.624-30.371-30.371-30.371H30.371C13.624 19.73 0 33.354 0 50.1v46.011c0 16.747 13.624 30.371 30.371 30.371h14.457a30.172 30.172 0 0 0-4.018 15.067v46.011a30.169 30.169 0 0 0 4.018 15.067H30.371C13.624 202.626 0 216.25 0 232.996v46.011c0 13.242 8.523 24.526 20.368 28.67a30.19 30.19 0 0 0-5.064 16.767v46.011a30.19 30.19 0 0 0 5.064 16.767C8.523 391.366 0 402.65 0 415.892v46.011c0 16.746 13.624 30.37 30.371 30.37H263.69a7.651 7.651 0 1 0 0-15.303zM15.303 96.111V50.1c0-8.308 6.759-15.067 15.067-15.067h272.09c8.309 0 15.067 6.759 15.067 15.067v46.011c0 8.308-6.759 15.067-15.067 15.067H30.371c-8.309 0-15.068-6.759-15.068-15.067z" fill="#000000" data-original="#000000" class=""></path><path d="M436.33 186.341a7.651 7.651 0 0 0-10.588 2.233 7.651 7.651 0 0 0 2.232 10.588c43.032 28.043 68.722 75.407 68.722 126.698 0 83.323-67.789 151.112-151.112 151.112-83.324 0-151.113-67.789-151.113-151.112s67.789-151.112 151.113-151.112c21.877 0 42.977 4.571 62.711 13.584a7.65 7.65 0 0 0 10.139-3.781 7.651 7.651 0 0 0-3.781-10.139c-21.744-9.932-44.982-14.967-69.069-14.967-91.761 0-166.416 74.654-166.416 166.415s74.655 166.415 166.416 166.415S512 417.622 512 325.861c0-56.485-28.287-108.642-75.67-139.52z" fill="#000000" data-original="#000000" class=""></path><path d="M253.276 375.147a7.648 7.648 0 0 0-10.354-3.141 7.65 7.65 0 0 0-3.141 10.355 119.994 119.994 0 0 0 21.012 28.293c23.378 23.378 54.086 35.067 84.793 35.067s61.415-11.689 84.793-35.067c46.755-46.755 46.755-122.832 0-169.587-22.65-22.65-52.763-35.123-84.793-35.123s-62.144 12.474-84.793 35.123c-30.277 30.276-42.142 74.789-30.965 116.169a7.651 7.651 0 1 0 14.773-3.99c-9.752-36.106.599-74.944 27.014-101.358 19.758-19.758 46.029-30.641 73.972-30.641s54.214 10.882 73.972 30.641c40.789 40.789 40.789 107.156 0 147.945-40.788 40.788-107.155 40.788-147.944 0a104.643 104.643 0 0 1-18.339-24.686z" fill="#000000" data-original="#000000" class=""></path><path d="M318.614 354.712a7.651 7.651 0 0 0-7.652-7.652 7.651 7.651 0 0 0-7.652 7.652c0 17.872 14.955 32.774 34.624 35.893v4.5c0 4.226 3.425 7.652 7.652 7.652s7.652-3.426 7.652-7.652v-4.5c19.669-3.119 34.623-18.022 34.623-35.893 0-17.871-14.954-32.774-34.623-35.893v-42.138c11.156 2.599 19.32 10.725 19.32 20.327 0 4.226 3.425 7.652 7.652 7.652s7.652-3.426 7.652-7.652c0-17.872-14.954-32.774-34.623-35.893v-4.5c0-4.226-3.425-7.652-7.652-7.652s-7.652 3.426-7.652 7.652v4.5c-19.669 3.12-34.624 18.022-34.624 35.893s14.955 32.774 34.624 35.893v42.138c-11.158-2.6-19.321-10.726-19.321-20.327zm53.942 0c0 9.601-8.164 17.727-19.32 20.327v-40.653c11.156 2.599 19.32 10.726 19.32 20.326zm-53.942-57.704c0-9.601 8.164-17.727 19.321-20.327v40.653c-11.158-2.599-19.321-10.725-19.321-20.326z" fill="#000000" data-original="#000000" class=""></path></g></svg>