<?xml version="1.0" encoding="UTF-8"?>
<svg width="333px" height="334px" viewBox="0 0 333 334" version="1.1" xmlns="http://www.w3.org/2000/svg" xmlns:xlink="http://www.w3.org/1999/xlink">
    <title>coins</title>
    <g id="Page-1" stroke="none" stroke-width="1" fill="none" fill-rule="evenodd">
        <g id="coins" transform="translate(0.168000, 0.721000)" fill-rule="nonzero">
            <path d="M278.681,278.68 C230.925,326.428 160.328,337.404 102.068,311.595 C88.0772662,305.399381 75.0625706,297.200813 63.433,287.257 C60.2281936,284.520657 57.132139,281.659451 54.152,278.68 C-7.845,216.675 -7.845,116.156 54.152,54.151 C116.157,-7.846 216.676,-7.846 278.681,54.151 C281.662304,57.1293573 284.52358,60.2254867 287.258,63.432 C297.203752,75.0601428 305.402506,88.0751343 311.596,102.067 C337.406,160.319 326.429,230.924 278.681,278.68 Z" id="Path" fill="#F4B74A"></path>
            <path d="M311.595,102.066 L102.068,311.594 C88.0772662,305.398381 75.0625706,297.199813 63.433,287.256 L287.258,63.432 C297.203087,75.0600692 305.401477,88.0746804 311.595,102.066 L311.595,102.066 Z" id="Path" fill="#F9C662"></path>
            <path d="M278.68,166.416 C278.68,228.417 228.417,278.68 166.416,278.68 C131.418,278.68 100.165,262.67 79.572,237.567 C63.681,218.198 54.153,193.42 54.153,166.417 C54.153,104.416 104.416,54.153 166.417,54.153 C193.427,54.153 218.207,63.696 237.573,79.587 C262.669,100.171 278.68,131.425 278.68,166.416 L278.68,166.416 Z" id="Path" fill="#FFD488"></path>
            <path d="M237.573,79.586 L79.587,237.572 L79.573,237.565 C74.9159259,231.892496 70.8285511,225.775335 67.37,219.302 C63.3749356,211.847333 60.2439966,203.960936 58.038,195.796 C55.4521172,186.216346 54.1457696,176.336525 54.1529702,166.414 C54.1529702,104.413 104.416,54.15 166.417,54.15 C176.586,54.15 186.439,55.501 195.799,58.035 C203.964118,60.2435762 211.850486,63.3768524 219.305,67.374 C225.778565,70.8382597 231.897128,74.928466 237.573,79.586 L237.573,79.586 Z" id="Path" fill="#F9C662"></path>
            <path d="M219.304,67.376 L67.37,219.302 C63.3749356,211.847333 60.2439966,203.960936 58.038,195.796 L195.799,58.036 C203.963776,60.2450911 211.849792,63.3786964 219.304,67.376 L219.304,67.376 Z" id="Path" fill="#FFD488"></path>
            <path d="M257.162,26.896 C255.461871,25.787915 253.391163,25.400658 251.405485,25.8194358 C249.419807,26.2382135 247.681846,27.4287154 246.574,29.129 C245.465821,30.8290077 245.078407,32.8996295 245.496995,34.8852957 C245.915583,36.870962 247.105879,38.608995 248.806,39.717 C291.838,67.76 317.528,115.124 317.528,166.415 C317.528,249.738 249.739,317.527 166.416,317.527 C83.092,317.527 15.303,249.738 15.303,166.415 C15.303,83.092 83.092,15.303 166.416,15.303 C188.293,15.303 209.393,19.874 229.127,28.887 C230.972847,29.7305753 233.078252,29.8061153 234.979809,29.0969936 C236.881365,28.3878718 238.423218,26.9522094 239.266,25.106 C240.1093,23.2601165 240.184699,21.1548165 239.475605,19.2533362 C238.766512,17.3518558 237.331025,15.8099898 235.485,14.967 C213.741,5.035 190.503,0 166.416,0 C74.655,0 0,74.654 0,166.415 C0,258.176 74.655,332.83 166.416,332.83 C258.177,332.83 332.832,258.177 332.832,166.416 C332.832,109.931 304.545,57.774 257.162,26.896 Z" id="Path" fill="#000000"></path>
            <path d="M74.108,215.702 C73.1520557,213.91189 71.5238401,212.575103 69.581866,211.985984 C67.639892,211.396864 65.5433958,211.603719 63.754,212.561 C61.9640175,213.517336 60.6273895,215.145735 60.0383015,217.087793 C59.4492136,219.029852 59.6559467,221.126401 60.613,222.916 C66.186347,233.329736 73.2666917,242.863535 81.625,251.209 C105.003,274.587 135.711,286.276 166.418,286.276 C197.125,286.276 227.833,274.587 251.211,251.209 C297.966,204.454 297.966,128.377 251.211,81.622 C228.561,58.972 198.448,46.499 166.418,46.499 C134.388,46.499 104.274,58.973 81.625,81.622 C51.348,111.898 39.483,156.411 50.66,197.791 C51.3727447,200.429942 53.4392071,202.488181 56.0809707,203.190397 C58.7227342,203.892613 61.5384522,203.132123 63.4674709,201.195397 C65.3964895,199.258671 66.145745,196.439942 65.433,193.801 C55.681,157.695 66.032,118.857 92.447,92.443 C112.205,72.685 138.476,61.802 166.419,61.802 C194.362,61.802 220.633,72.684 240.391,92.443 C281.18,133.232 281.18,199.599 240.391,240.388 C199.603,281.176 133.236,281.176 92.447,240.388 C85.1516384,233.107383 78.971922,224.78891 74.108,215.702 L74.108,215.702 Z" id="Path" fill="#000000"></path>
            <path d="M139.446,195.267 C139.446265,193.237482 138.64016,191.291012 137.205074,189.855926 C135.769988,188.42084 133.823518,187.614735 131.794,187.615 C129.764482,187.614735 127.818012,188.42084 126.382926,189.855926 C124.94784,191.291012 124.142,193.237482 124.142,195.267 C124.142,213.139 139.097,228.041 158.766,231.16 L158.766,235.66 C158.766,239.886 162.191,243.312 166.418,243.312 C170.645,243.312 174.07,239.886 174.07,235.66 L174.07,231.16 C193.739,228.041 208.693,213.138 208.693,195.267 C208.693,177.396 193.739,162.493 174.07,159.374 L174.07,117.236 C185.226,119.835 193.39,127.961 193.39,137.563 C193.39,141.789 196.815,145.215 201.042,145.215 C205.269,145.215 208.694,141.789 208.694,137.563 C208.694,119.691 193.74,104.789 174.071,101.67 L174.071,97.17 C174.071,92.944 170.646,89.518 166.419,89.518 C162.192,89.518 158.767,92.944 158.767,97.17 L158.767,101.67 C139.098,104.79 124.143,119.692 124.143,137.563 C124.143,155.434 139.098,170.337 158.767,173.456 L158.767,215.594 C147.609,212.994 139.446,204.868 139.446,195.267 L139.446,195.267 Z M193.388,195.267 C193.388,204.868 185.224,212.994 174.068,215.594 L174.068,174.941 C185.224,177.54 193.388,185.667 193.388,195.267 Z M139.446,137.563 C139.446,127.962 147.61,119.836 158.767,117.236 L158.767,157.889 C147.609,155.29 139.446,147.164 139.446,137.563 Z" id="Shape" fill="#000000"></path>
        </g>
    </g>
</svg>