<svg xmlns="http://www.w3.org/2000/svg" version="1.1" xmlns:xlink="http://www.w3.org/1999/xlink" xmlns:svgjs="http://svgjs.com/svgjs" width="512" height="512" x="0" y="0" viewBox="0 0 512 512" style="enable-background:new 0 0 512 512" xml:space="preserve" class=""><g><g fill="#f2db45"><path d="M497.634 61.014c-5.841-7.121-14.77-10.984-23.98-10.984H362.086v35.686h98.473c3.336 0 5.773 3.15 4.936 6.379l-17.145 66.144a83.747 83.747 0 0 1-60.11 60.078l-67.169 13.655a156.04 156.04 0 0 1-37.658 30.109 17.83 17.83 0 0 0 4.878 6.284 17.839 17.839 0 0 0 14.845 3.669l92.652-18.835c.278-.057.555-.12.83-.19 42.274-10.717 75.333-43.6 86.277-85.816l20.616-79.536c2.427-9.361.286-19.129-5.877-26.643zM190.928 231.972l-67.171-13.655a83.742 83.742 0 0 1-60.107-60.078L46.504 92.095c-.837-3.229 1.601-6.379 4.936-6.379h98.473V50.03H38.345c-9.211 0-18.141 3.863-23.981 10.986-6.162 7.514-8.302 17.282-5.875 26.642l20.616 79.535a119.43 119.43 0 0 0 86.277 85.817c.275.07.552.133.829.19l92.652 18.835a17.845 17.845 0 0 0 14.845-3.669 17.83 17.83 0 0 0 4.878-6.284 156.063 156.063 0 0 1-37.658-30.11z" fill="#f2db45" data-original="#f2db45" class=""></path></g><path fill="#eac12e" d="M336.698 380.38c-26.045-23.885-41.877-58.06-41.877-95.136v-61.675h-77.642v61.675c0 37.075-15.832 71.251-41.877 95.136z" data-original="#eac12e"></path><path fill="#f2db45" d="M340.579 372.08H171.421c-15.103 0-27.346 12.243-27.346 27.346v32.924h223.85v-32.924c0-15.103-12.243-27.346-27.346-27.346z" data-original="#f2db45" class=""></path><path fill="#efd133" d="M288.752 289.091a67.258 67.258 0 0 1-65.504 0c-62.504-34.847-101.245-100.801-101.245-172.363V29.499h267.995v87.229c-.001 71.561-38.742 137.516-101.246 172.363z" data-original="#efd133" class=""></path><path fill="#eac12e" d="M324.667 29.499v87.229c0 71.562-38.741 137.516-101.245 172.363l-.087.047a67.256 67.256 0 0 0 65.417-.047c62.504-34.847 101.245-100.802 101.245-172.363V29.499z" data-original="#eac12e"></path><path fill="#f4e580" d="M401.733 7.614H110.267c-11.713 0-21.208 9.495-21.208 21.208s9.495 21.208 21.208 21.208h291.466c11.713 0 21.208-9.495 21.208-21.208s-9.495-21.208-21.208-21.208z" data-original="#f4e580"></path><path fill="#efd133" d="M401.733 7.614h-65.33c11.713 0 21.208 9.495 21.208 21.208V50.03h44.122c11.713 0 21.208-9.495 21.208-21.208s-9.495-21.208-21.208-21.208zM368.9 414.969H143.1c-20.792 0-37.648 16.855-37.648 37.648v4.779c0 8.484 6.878 15.362 15.362 15.362h270.372c8.484 0 15.362-6.878 15.362-15.362v-4.779c0-20.793-16.856-37.648-37.648-37.648z" data-original="#efd133" class=""></path><path fill="#e49542" d="m417.787 500.577 8.005-25.441a5.444 5.444 0 0 1 6.217-3.712l29.484 5.657c4.552.873 8.043-3.98 5.767-8.018l-61.454-109.031-59.008 33.259 61.056 108.324c2.338 4.15 8.503 3.506 9.933-1.038z" data-original="#e49542"></path><path fill="#e49542" d="m300.627 500.577-8.005-25.441a5.443 5.443 0 0 0-6.217-3.712l-29.484 5.657c-4.552.873-8.043-3.98-5.767-8.018l61.454-109.031 59.008 33.259-61.056 108.324c-2.339 4.15-8.503 3.506-9.933-1.038z" data-original="#e49542"></path><circle cx="359.207" cy="321.613" r="120.408" fill="#e07f84" data-original="#e07f84"></circle><path fill="#db636e" d="M359.207 201.205a120.505 120.505 0 0 0-32.665 4.487c50.627 14.237 87.743 60.743 87.743 115.921s-37.116 101.684-87.743 115.921a120.505 120.505 0 0 0 32.665 4.487c66.5 0 120.408-53.909 120.408-120.408s-53.909-120.408-120.408-120.408z" data-original="#db636e"></path><circle cx="359.207" cy="321.613" r="88.036" fill="#fcf7e0" data-original="#fcf7e0"></circle><path fill="#f7ecad" d="M378.122 407.606c39.53-8.656 69.122-43.865 69.122-85.993s-29.592-77.337-69.122-85.992c22.306 21.854 36.163 52.298 36.163 85.992 0 33.695-13.858 64.139-36.163 85.993z" data-original="#f7ecad"></path><path fill="#b2aab5" d="M388.12 358.513h-57.825c-5.827 0-10.551-4.724-10.551-10.551v-33.959h78.928v33.959c-.001 5.827-4.725 10.551-10.552 10.551z" data-original="#b2aab5"></path><path fill="#89808c" d="m352.141 285.891-53.401 18.302c-2.424.831-2.424 4.259 0 5.09l53.401 18.302a21.793 21.793 0 0 0 14.133 0l53.401-18.302c2.424-.831 2.424-4.259 0-5.09l-53.401-18.302a21.793 21.793 0 0 0-14.133 0z" data-original="#89808c"></path><path d="M473.654 42.53H426.95a28.537 28.537 0 0 0 3.49-13.708c0-15.829-12.878-28.708-28.708-28.708H110.267c-15.829 0-28.708 12.878-28.708 28.708 0 4.961 1.266 9.632 3.49 13.708H38.345c-25.712 0-43.253 23.342-37.116 47.01l20.616 79.535c11.63 44.867 46.765 79.816 91.7 91.207.387.098.777.188 1.172.268l75.766 15.401a204.488 204.488 0 0 0 19.104 13.724c-1.002 27.596-11.338 53.939-29.414 74.906h-8.752c-19.214 0-34.846 15.631-34.846 34.845v8.521c-21.813 3.172-38.623 21.991-38.623 44.67v4.779c0 12.606 10.255 22.861 22.861 22.861H246.16c3.019 3.473 7.574 5.073 12.174 4.189l27.684-5.311 7.455 23.692c3.378 10.737 18.028 12.392 23.621 2.471l14.114-25.041h55.998l14.114 25.041c5.597 9.928 20.245 8.258 23.621-2.471l7.455-23.692 27.685 5.312c5.009.958 9.968-1.014 12.945-5.154 2.977-4.139 3.271-9.47.768-13.912l-27.982-49.646c21.586-19.872 35.734-46.551 39.958-75.509a7.5 7.5 0 0 0-6.339-8.504c-4.099-.585-7.905 2.24-8.504 6.34-3.996 27.392-18.062 52.471-39.448 70.301-.051.042-.104.083-.153.127-72.873 60.545-185.027 8.976-185.027-86.876 0-62.258 50.651-112.908 112.909-112.908 27.285 0 53.624 9.862 74.164 27.77 20.345 17.738 33.683 42.133 37.556 68.689.598 4.099 4.408 6.934 8.504 6.34a7.501 7.501 0 0 0 6.339-8.504c-3.873-26.555-16.093-51.193-34.74-70.424 18.987-16.711 32.764-38.954 39.127-63.502l20.616-79.536c6.134-23.677-11.418-47.009-37.12-47.009zM117.709 245.851a9.546 9.546 0 0 1-.484-.111 111.932 111.932 0 0 1-80.861-80.429L15.748 85.775c-3.636-14.024 6.549-28.246 22.597-28.246l76.158.001v20.686H51.441c-8.24 0-14.266 7.779-12.196 15.761l17.145 66.144c8.314 32.079 33.408 57.161 65.49 65.457.127.033.255.062.384.089l27.247 5.539a205.047 205.047 0 0 0 20.003 25.176zm21.266-32.093-13.526-2.75c-26.72-6.981-47.609-27.906-54.54-54.651L54.542 93.215h59.961v23.512c0 34.457 8.685 67.692 24.472 97.031zm85.108 84.183a74.551 74.551 0 0 0 8.814 3.49 128.281 128.281 0 0 0-1.598 20.182c0 15.067 2.627 29.531 7.433 42.967h-39.498a136.171 136.171 0 0 0 24.849-66.639zM434.02 425.364l24.527 43.516-25.125-4.821a12.943 12.943 0 0 0-14.784 8.827l-6.581 20.914-26.504-47.023a127.812 127.812 0 0 0 48.467-21.413zm-85.247 23.729a126.78 126.78 0 0 0 20.865-.005l9.114 16.169h-39.09zm-64.352-23.779c14.234 10.294 30.659 17.734 48.434 21.471l-26.499 47.014-6.581-20.914c-1.973-6.27-8.333-10.073-14.784-8.826l-25.125 4.82zm-39.731 39.943H120.814c-4.335 0-7.862-3.527-7.862-7.862v-4.779c0-16.623 13.524-30.148 30.148-30.148h125.708zm19.786-57.788H151.574v-8.044c0-10.943 8.903-19.846 19.846-19.846h73.786a128.474 128.474 0 0 0 19.27 27.89zm94.731-213.763c-58.429 0-107.832 39.38-123.064 92.992a59.65 59.65 0 0 1-9.243-4.158c-60.077-33.494-97.398-97.03-97.398-165.813V57.53h15.616c4.142 0 7.5-3.357 7.5-7.5s-3.358-7.5-7.5-7.5l-34.87-.001c-7.55-.011-13.689-6.156-13.689-13.708 0-7.559 6.15-13.708 13.708-13.708h291.466c7.559 0 13.708 6.149 13.708 13.708 0 7.553-6.139 13.698-13.689 13.708l-221.574.001c-4.142 0-7.5 3.357-7.5 7.5s3.358 7.5 7.5 7.5h202.319v59.197c0 26.806-5.523 52.741-16.42 77.171a127.672 127.672 0 0 0-6.87-.192zm47.128 8.996a127.865 127.865 0 0 0-24.713-7.015c10.4-24.934 15.875-52.021 15.875-78.96V93.215h59.962l-16.367 63.142c-5.029 19.401-17.613 36.108-34.757 46.345zm89.917-116.926-20.616 79.536c-5.748 22.175-18.354 42.218-35.734 57.068a127.73 127.73 0 0 0-17.855-12.18c16.402-12.336 28.361-30.006 33.564-50.079l17.145-66.144c2.066-7.977-3.948-15.761-12.196-15.761h-63.063V57.53h4.236l.039-.001h71.883c16.034 0 26.235 14.212 22.597 28.247z" fill="#000000" data-original="#000000" class=""></path><path d="M359.207 226.078c-52.679 0-95.536 42.857-95.536 95.536s42.857 95.536 95.536 95.536 95.536-42.857 95.536-95.536-42.857-95.536-95.536-95.536zm0 176.072c-44.408 0-80.536-36.128-80.536-80.536s36.128-80.536 80.536-80.536 80.537 36.128 80.537 80.536-36.129 80.536-80.537 80.536z" fill="#000000" data-original="#000000" class=""></path><path d="m349.708 278.797-53.401 18.302a10.191 10.191 0 0 0 0 19.279l15.935 5.462v26.122c0 9.954 8.098 18.051 18.051 18.051h57.826c9.953 0 18.051-8.097 18.051-18.051V321.84l15.936-5.462a10.191 10.191 0 0 0 0-19.279l-53.4-18.302a29.432 29.432 0 0 0-18.998 0zm41.463 69.165a3.055 3.055 0 0 1-3.052 3.052h-57.826a3.055 3.055 0 0 1-3.052-3.052v-20.981l22.467 7.7a29.436 29.436 0 0 0 18.995 0l22.466-7.7v20.981zm-27.328-27.47a14.387 14.387 0 0 1-9.271 0l-40.128-13.753 40.128-13.753h.001a14.354 14.354 0 0 1 9.269 0l40.128 13.753z" fill="#000000" data-original="#000000" class=""></path></g></svg>