<svg xmlns="http://www.w3.org/2000/svg" version="1.1" xmlns:xlink="http://www.w3.org/1999/xlink" xmlns:svgjs="http://svgjs.com/svgjs" width="512" height="512" x="0" y="0" viewBox="0 0 512 512" style="enable-background:new 0 0 512 512" xml:space="preserve" class=""><g><g fill-rule="evenodd" clip-rule="evenodd"><path fill="#ff646f" d="M13.046 367.258c-11.559 11.571-7.81 25.53 11.246 26.469l54.272 6.88c18.801 2.36 15.052 3.156 17.296 21.038l5.737 49.469c.966 19.105 14.91 22.83 26.44 11.258l38.567-38.58 39.476-39.547c-3.436-1.279-6.958-3.213-10.139-5.942l-28.002-70.706-85.512-29.795z" data-original="#ff646f"></path><path fill="#fc2b3a" d="M134.115 419.656 99.637 454.17l1.96 16.944c.966 19.105 14.91 22.83 26.44 11.258l38.567-38.58 39.476-39.547c-3.436-1.279-6.958-3.213-10.139-5.942l-22.322-18.195z" data-original="#fc2b3a"></path><path fill="#ff646f" d="m305.906 404.246 39.504 39.547 38.539 38.58c11.559 11.571 25.503 7.847 26.469-11.258l5.708-49.469c2.244-17.883-1.505-18.679 17.324-21.038l54.244-6.88c19.085-.938 22.805-14.898 11.275-26.469l-69.835-69.91-93.322 9.467z" data-original="#ff646f"></path><path fill="#fc2b3a" d="m402.494 329.076 66.882 66.982 18.318-2.331c19.085-.938 22.805-14.898 11.275-26.469l-69.835-69.91-52.966 5.373z" data-original="#fc2b3a"></path><path fill="#ffe287" d="m270.69 26.663 25.986 12.282 36.806 2.36c5.226.341 16.614 4.179 23.686 14.101l17.324 23 31.467 19.247c4.487 2.729 12.808 11.429 14.456 23.54l4.686 28.43 18.971 31.728c2.698 4.52 6.021 16.092 1.874 27.549l-9.031 27.407 2.102 36.903c.312 5.26-2.102 17.058-11.076 25.303l-20.675 20.015-15.251 33.69c-2.158 4.776-9.77 14.13-21.527 17.2l-27.605 8.103-29.081 22.716c-4.146 3.241-15.194 7.96-27.065 5.203l-28.173-5.686-36.267 6.539c-5.169.938-17.154-.028-26.355-7.989l-22.322-18.195-35.159-11.116c-4.998-1.564-15.137-8.017-19.624-19.361l-11.332-26.497-25.986-26.241c-3.692-3.753-9.713-14.187-8.406-26.327l2.244-28.743-10.849-35.339c-1.562-5.032-2.045-17.087 4.714-27.236l15.308-24.393 6.759-36.362c.966-5.174 6.134-16.063 16.813-21.891l24.85-14.499 22.833-29.027c3.238-4.122 12.865-11.372 25.02-11.543l28.712-1.251 33.682-15.068c4.771-2.135 16.642-4.068 27.491 1.448z" data-original="#ffe287"></path><path fill="#fdb440" d="M255.723 363.051c81.763 0 148.049-66.356 148.049-148.236 0-81.851-66.285-148.207-148.049-148.207-81.792 0-148.077 66.356-148.077 148.207 0 81.879 66.285 148.236 148.077 148.236z" data-original="#fdb440" class=""></path><path fill="#fe9900" d="M403.772 214.815c0-66.982-44.389-123.587-105.335-141.924 28.627 40.968 46.292 97.175 46.292 159.238 0 33.605-5.169 65.504-14.484 94.19a265.943 265.943 0 0 1-7.696 20.811c21.698-11.003 40.328-27.208 54.244-46.967 16.982-24.109 26.979-53.563 26.979-85.348z" data-original="#fe9900" class=""></path><path fill="#ffd64d" d="M445.945 208.901c4.146-11.457.824-23.029-1.874-27.549L425.1 149.624l-4.686-28.43c-1.647-12.111-9.968-20.811-14.456-23.54l-31.467-19.247-17.324-23c-7.072-9.922-18.46-13.76-23.686-14.101l-36.806-2.36-25.985-12.283c-8.236-4.179-17.068-4.094-22.919-2.843 19.085 11.685 36.267 28.43 50.665 49.071 60.946 18.338 105.335 74.942 105.335 141.924 0 31.785-9.997 61.239-26.98 85.348-13.916 19.759-32.546 35.964-54.244 46.967-3.834 9.155-8.094 17.94-12.78 26.213-6.646 11.77-14.086 22.574-22.237 32.268 5.623 1.166 11.048.654 15.563-.512 4.8-1.251 8.634-3.241 10.707-4.862l29.081-22.716 27.605-8.103c11.758-3.07 19.369-12.424 21.527-17.2l15.251-33.69 19.993-19.389.682-.625c8.974-8.245 11.388-20.043 11.076-25.303l-2.102-36.903z" data-original="#ffd64d"></path><path fill="#fff1c7" d="M279.323 286.801V147.975c0-5.487-1.732-9.951-5.197-13.419-3.436-3.44-7.668-5.174-12.638-5.174h-34.733c-4.998 0-9.258 1.734-12.78 5.174-3.55 3.469-5.311 7.619-5.311 12.452 0 4.663 1.761 8.757 5.311 12.31 3.834 3.383 8.122 5.061 12.78 5.061h13.746V286.8c0 5.146 1.874 9.609 5.652 13.391 3.777 3.781 8.406 5.686 13.888 5.686 5.453 0 10.025-1.905 13.746-5.686 3.69-3.781 5.536-8.245 5.536-13.39z" data-original="#fff1c7" class=""></path><path fill="#ffe287" d="M279.323 286.801V154.23c0 51.232-14.598 98.085-38.766 134.134.341 4.492 2.215 8.444 5.595 11.827 3.777 3.781 8.406 5.686 13.888 5.686 5.453 0 10.025-1.905 13.746-5.686 3.691-3.781 5.537-8.245 5.537-13.39z" data-original="#ffe287"></path></g><path d="m503.282 361.445-64.75-64.818c6.14-9.152 7.538-19.086 7.252-23.916l-2.011-35.339 8.511-25.8c5.234-14.593.645-28.463-2.525-33.774l-18.154-30.36-4.416-26.793c-2.141-15.423-12.663-25.556-17.923-28.755L379.16 73.476l-16.327-21.675c-9.041-12.618-23.038-16.712-29.196-17.113l-35.209-2.258-24.477-11.57c-13.836-6.985-28.14-4.077-33.784-1.555L207.944 33.72l-27.045 1.178c-15.5.264-26.811 9.514-30.629 14.375l-21.848 27.773-23.414 13.661c-13.582 7.462-19.315 20.908-20.451 26.995l-6.467 34.791-14.426 22.988c-8.586 12.969-7.396 27.548-5.568 33.435l10.381 33.815-2.114 27.083c-1.194 11.402 2.767 21.158 6.676 27.256L8.732 361.445c-7.799 7.807-10.598 17.281-7.486 25.342 3.157 8.181 11.662 13.232 23.357 13.886l53.775 6.816c2.305.289 7.367.925 9.366 1.587.199 1.067.358 3.017.503 4.778.176 2.154.395 4.835.787 7.956l5.686 49.025c.66 11.751 5.729 20.285 13.931 23.434a18.598 18.598 0 0 0 6.701 1.231c6.287 0 12.882-3.037 18.573-8.748l22.256-22.251a7.557 7.557 0 0 0-10.686-10.689l-22.266 22.261c-3.329 3.341-6.925 4.945-9.16 4.085-1.846-.708-3.936-3.798-4.267-10.343a7.215 7.215 0 0 0-.041-.489L104.039 420c-.36-2.867-.556-5.263-.728-7.376-.489-5.977-.911-11.14-5.346-14.929-3.889-3.323-9.261-4.14-17.695-5.199l-54.042-6.851a7.452 7.452 0 0 0-.579-.051c-6.511-.321-9.591-2.405-10.303-4.249-.868-2.25.733-5.869 4.079-9.218l63.716-63.782 18.611 18.773 10.678 24.995c5.769 14.473 18.392 21.772 24.251 23.605l33.632 10.633 21.027 17.139c.809.695 1.634 1.33 2.466 1.938l-24.055 24.102a7.556 7.556 0 0 0 5.349 12.895c1.937 0 3.873-.74 5.349-2.219l27.962-28.016c3.81.944 7.377 1.299 10.325 1.299 2.005 0 3.726-.16 5.045-.399l34.691-6.255 26.534 5.355c6.734 1.543 13.083 1.155 18.488-.084l74.564 74.642c5.709 5.715 12.311 8.751 18.6 8.751 2.299 0 4.558-.406 6.714-1.236 8.197-3.153 13.262-11.685 13.922-23.431l5.649-48.952c.4-3.187.619-5.866.795-8.018.144-1.763.304-3.716.504-4.783 2.001-.664 7.082-1.3 9.404-1.591l53.737-6.816c11.698-.654 20.205-5.701 23.367-13.875 3.116-8.055.326-17.531-7.468-25.352zm-214.967 35.998a7.45 7.45 0 0 0-.215-.047l-28.053-5.662a7.536 7.536 0 0 0-2.836-.029l-36.121 6.512c-2.208.401-6.876.245-11.817-1.543-.199-.085-.4-.16-.604-.227-2.56-.993-5.168-2.424-7.527-4.464a7.566 7.566 0 0 0-.17-.143l-22.228-18.118a7.57 7.57 0 0 0-2.496-1.348L141.216 361.3c-3.313-1.036-11.283-6.029-14.77-14.846a7.538 7.538 0 0 0-.078-.189l-11.283-26.412a7.54 7.54 0 0 0-1.583-2.351l-24.929-25.145c-.024-.024-.044-.051-.068-.075-.02-.02-.042-.036-.062-.056l-.797-.804c-2.473-2.513-7.253-10.735-6.244-20.105.008-.074.015-.147.021-.221l2.234-28.62a7.547 7.547 0 0 0-.31-2.806l-10.81-35.21c-1.039-3.346-1.485-12.806 3.767-20.691.038-.057.075-.114.111-.172l15.242-24.289c.506-.806.855-1.7 1.029-2.636l6.729-36.202c.644-3.448 4.652-12.031 12.933-16.551l.188-.106 24.744-14.437a7.545 7.545 0 0 0 2.131-1.855l22.74-28.908c2.16-2.751 9.665-8.473 19.076-8.605.074-.001.149-.003.223-.006l28.59-1.246a7.55 7.55 0 0 0 2.757-.652l33.536-15.002c1.631-.729 4.865-1.494 8.758-1.494 3.709 0 8.016.695 12.108 2.775.065.033.13.065.196.096l25.876 12.229a7.546 7.546 0 0 0 2.745.709l36.642 2.349c3.478.227 12.435 3.186 17.922 10.886l.118.161 17.251 22.901a7.546 7.546 0 0 0 2.093 1.9l31.349 19.175c2.983 1.813 9.554 8.6 10.833 18.001l.032.211 4.666 28.309c.154.936.484 1.834.97 2.649l18.887 31.587c1.797 3.01 4.466 12.101 1.25 20.987l-.071.204-8.99 27.263a7.56 7.56 0 0 0-.368 2.797l2.094 36.791c.207 3.491-1.621 12.773-8.598 19.182-.049.044-.097.09-.144.136l-20.587 19.93a7.547 7.547 0 0 0-1.628 2.313l-15.189 33.55c-1.442 3.192-7.362 10.551-16.458 12.926l-.219.061-27.487 8.068a7.54 7.54 0 0 0-2.524 1.296l-28.96 22.621c-1.015.794-2.837 1.804-5.188 2.658a7.36 7.36 0 0 0-.929.315c-3.932 1.278-9.106 2.045-14.468.799zm208.338-16.096c-.713 1.843-3.797 3.926-10.315 4.247a7.054 7.054 0 0 0-.58.051l-54.002 6.849c-8.455 1.06-13.836 1.877-17.727 5.199-4.442 3.791-4.865 8.957-5.354 14.939-.173 2.112-.369 4.506-.737 7.443l-5.684 49.257a7.15 7.15 0 0 0-.04.485c-.331 6.543-2.421 9.632-4.267 10.342-2.243.862-5.851-.743-9.196-4.091l-70.471-70.545 27.747-21.673 25.999-7.631c14.975-3.959 23.747-15.652 26.294-21.292l14.593-32.234 15.4-14.909 64.269 64.336c3.344 3.355 4.941 6.976 4.071 9.227z" fill="#000000" data-original="#000000" class=""></path><path d="M410.701 214.994c0-85.539-69.522-155.131-154.977-155.131-17.129 0-33.972 2.784-50.063 8.275a7.556 7.556 0 1 0 4.882 14.304c14.516-4.953 29.717-7.465 45.181-7.465 77.12 0 139.862 62.811 139.862 140.017 0 77.221-62.742 140.044-139.862 140.044-77.136 0-139.89-62.824-139.89-140.044 0-47.254 23.583-91.004 63.085-117.031a7.557 7.557 0 0 0-8.315-12.62c-43.759 28.831-69.884 77.299-69.884 129.651 0 85.555 69.535 155.158 155.005 155.158 85.453.001 154.976-69.603 154.976-155.158z" fill="#000000" data-original="#000000" class=""></path><path d="M240.847 305.346c5.221 5.228 11.673 7.878 19.175 7.878 7.487 0 13.905-2.664 19.095-7.939 5.086-5.209 7.665-11.471 7.665-18.613V148.441c0-7.504-2.485-13.797-7.386-18.702-4.815-4.82-11.015-7.369-17.931-7.369H226.88c-6.988 0-13.046 2.457-18.007 7.304-4.949 4.835-7.564 10.992-7.564 17.805 0 6.696 2.523 12.617 7.499 17.598.112.112.227.221.347.325 5.211 4.598 11.175 6.93 17.726 6.93h6.13v114.34c-.002 7.185 2.635 13.468 7.836 18.674zM226.88 157.218c-2.728 0-5.198-.979-7.546-2.991-2.012-2.075-2.911-4.165-2.911-6.748 0-2.801.929-4.959 3.012-6.994 2.096-2.047 4.461-3.001 7.445-3.001h34.585c2.937 0 5.237.933 7.237 2.936 2.022 2.025 2.965 4.573 2.965 8.021v138.231c0 3.144-1.069 5.703-3.345 8.033-2.285 2.323-4.922 3.404-8.3 3.404-3.439 0-6.134-1.094-8.482-3.445-2.331-2.333-3.417-4.873-3.417-7.992V164.775a7.557 7.557 0 0 0-7.557-7.557z" fill="#000000" data-original="#000000" class=""></path></g></svg>