<svg xmlns="http://www.w3.org/2000/svg" version="1.1" xmlns:xlink="http://www.w3.org/1999/xlink" xmlns:svgjs="http://svgjs.com/svgjs" width="512" height="512" x="0" y="0" viewBox="0 0 60 60" style="enable-background:new 0 0 512 512" xml:space="preserve" class=""><g><circle cx="24" cy="24" r="23" fill="#fbbc05" data-original="#e3cc63" class=""></circle><path fill="#ff0027" d="m32.959 58.414-9.373-9.373A2 2 0 0 1 23 47.627V34.373a2 2 0 0 1 .586-1.414l9.373-9.373A2 2 0 0 1 34.373 23h13.254a2 2 0 0 1 1.414.586l9.373 9.373A2 2 0 0 1 59 34.373v13.254a2 2 0 0 1-.586 1.414l-9.373 9.373a2 2 0 0 1-1.414.586H34.373a2 2 0 0 1-1.414-.586z" data-original="#cd5f70" class=""></path><circle cx="41" cy="51" r="2" fill="#ffffff" data-original="#ffffff" class=""></circle><rect width="4" height="16" x="39" y="29" fill="#ffffff" rx="2" data-original="#ffffff" class=""></rect><g fill="#373737"><path d="M49.75 22.88a2.948 2.948 0 0 0-1.84-.85 24 24 0 1 0-25.88 25.88 2.948 2.948 0 0 0 .85 1.84l9.37 9.37a2.973 2.973 0 0 0 2.12.88h13.26a2.973 2.973 0 0 0 2.12-.88l9.37-9.37a2.973 2.973 0 0 0 .88-2.12V41a1 1 0 0 0-2 0v6.63a1.009 1.009 0 0 1-.29.7l-9.38 9.38a1.009 1.009 0 0 1-.7.29H34.37a1.009 1.009 0 0 1-.7-.29l-9.38-9.38a1.009 1.009 0 0 1-.29-.7V34.37a1.009 1.009 0 0 1 .29-.7l9.38-9.38a1.009 1.009 0 0 1 .7-.29h13.26a1.009 1.009 0 0 1 .7.29l9.38 9.38a1.009 1.009 0 0 1 .29.7V37a1 1 0 0 0 2 0v-2.63a2.973 2.973 0 0 0-.88-2.12zM18.35 2.74a20.022 20.022 0 0 0-4.06 6.99 22.264 22.264 0 0 1-4.22-2.74 21.9 21.9 0 0 1 8.28-4.25zm-9.78 5.6a23.979 23.979 0 0 0 5.09 3.3A43.528 43.528 0 0 0 12.01 23H2.03A21.873 21.873 0 0 1 8.57 8.34zM2.05 25h9.97a43.823 43.823 0 0 0 1.67 11.36 23.652 23.652 0 0 0-5.13 3.31A21.893 21.893 0 0 1 2.05 25zm8.01 16.02a22.121 22.121 0 0 1 4.26-2.75 20.219 20.219 0 0 0 4.07 6.99 21.872 21.872 0 0 1-8.33-4.24zM22 45.52c-2.37-1.09-4.43-4.01-5.86-8.04A21.823 21.823 0 0 1 22 36.12zm1-13.39-.12.12a3 3 0 0 0-.85 1.86 23.959 23.959 0 0 0-6.5 1.46A42.08 42.08 0 0 1 14.02 25H23zM23 23h-8.99a41.957 41.957 0 0 1 1.53-10.55 23.641 23.641 0 0 0 7.46 1.5zm0-11.05a21.711 21.711 0 0 1-6.84-1.4c1.65-4.61 4.1-7.8 6.84-8.43zm14.94-4.97a21.986 21.986 0 0 1-4.27 2.77 20.145 20.145 0 0 0-4.08-7.01 21.747 21.747 0 0 1 8.35 4.24zM25 2.12c2.75.62 5.2 3.81 6.85 8.43a21.83 21.83 0 0 1-6.85 1.4zm0 28.01V25h5.13zm7.25-7.25-.12.12H25v-9.05a23.865 23.865 0 0 0 7.46-1.5 41.282 41.282 0 0 1 1.49 9.59 2.959 2.959 0 0 0-1.7.84zm3.71-.88a42.63 42.63 0 0 0-1.65-10.35 24.254 24.254 0 0 0 5.14-3.32A21.84 21.84 0 0 1 45.88 22z" fill="#000000" data-original="#373737" class=""></path><path d="M41 48a3 3 0 1 0 3 3 3 3 0 0 0-3-3zm0 4a1 1 0 1 1 1-1 1 1 0 0 1-1 1zM44 31a3 3 0 0 0-6 0v12a3 3 0 0 0 6 0zm-2 12a1 1 0 0 1-2 0V31a1 1 0 0 1 2 0z" fill="#000000" data-original="#373737" class=""></path></g></g></svg>