
<svg width="512px" height="501px" viewBox="0 0 512 501" version="1.1" xmlns="http://www.w3.org/2000/svg" xmlns:xlink="http://www.w3.org/1999/xlink">
    <g id="Page-1" stroke="none" stroke-width="1" fill="none" fill-rule="evenodd">
        <g id="notRegisteredImage" fill-rule="nonzero">
            <path d="M406.659,448.631 L12.492,448.631 C9.73057625,448.631 7.492,446.392424 7.492,443.631 L7.492,425.669 C7.492,342.826 74.649,275.669 157.492,275.669 L261.659,275.669 C344.502,275.669 411.659,342.826 411.659,425.669 L411.659,443.631 C411.659,446.392424 409.420424,448.631 406.659,448.631 L406.659,448.631 Z" id="Path" fill="#6DCF5A"></path>
            <path d="M261.831,275.669 L157.32,275.669 C149.62,275.669 142.057,276.252 134.67,277.372 C206.67,288.29 261.849,350.449 261.849,425.497 L261.849,443.636 C261.849,446.39411 259.61311,448.63 256.855,448.63 L406.665,448.63 C409.42311,448.63 411.659,446.39411 411.659,443.636 L411.659,425.497 C411.659,342.75 344.579,275.669 261.831,275.669 L261.831,275.669 Z" id="Path" fill="#5E9B52"></path>
            <path d="M114.709,97.489 L114.709,120.288 L304.442,120.288 L304.442,97.489 C304.442,47.784 264.148,7.491 214.444,7.491 L204.707,7.491 C155.003,7.491 114.709,47.785 114.709,97.489 Z" id="Path" fill="#784033"></path>
            <path d="M214.444,7.491 L195.935,7.491 C229.342,7.491 256.425,34.573 256.425,67.98 L256.425,120.287 L304.442,120.287 L304.442,97.488 C304.442,47.785 264.149,7.491 214.444,7.491 L214.444,7.491 Z" id="Path" fill="#61362B"></path>
            <path d="M298.394,142.773 C288.672,163.415 287.835,190.86 300.04,196.607 C312.244,202.355 332.868,184.229 342.59,163.587 C352.312,142.945 346.03,130.616 333.826,124.868 C321.621,119.121 308.115,122.131 298.394,142.773 Z" id="Path" fill="#FFCBBE"></path>
            <path d="M220.678,336.493 L198.474,336.493 C167.849,336.493 143.023,311.667 143.023,281.042 L143.023,177.826 L276.129,177.826 L276.129,281.042 C276.129,311.667 251.302,336.493 220.678,336.493 L220.678,336.493 Z" id="Path" fill="#EAAC9D"></path>
            <path d="M236.257,177.826 L236.257,281.106 C236.257,308.71 216.06,331.591 189.639,335.796 C192.539367,336.259449 195.471839,336.494 198.409,336.494 L220.74,336.494 C251.33,336.494 276.128,311.696 276.128,281.106 L276.128,177.826 L236.257,177.826 Z" id="Path" fill="#DF9380"></path>
            <path d="M287.212,91.469 L131.939,91.469 C122.423,91.469 114.709,99.183 114.709,108.699 L114.709,170.039 C114.709,203.424 131.328,234.619 159.036,253.243 L186.606,271.774 C200.496028,281.109946 218.654972,281.109946 232.545,271.774 L260.115,253.243 C287.822871,234.619066 304.442,203.424282 304.442,170.039 L304.442,108.699 C304.442,99.183 296.728,91.469 287.212,91.469 L287.212,91.469 Z" id="Path" fill="#FFCBBE"></path>
            <path d="M276.24,91.469 L276.24,170.039 C276.24,203.424 259.621,234.619 231.913,253.243 L204.343,271.774 C201.579584,273.624794 198.601828,275.133484 195.475,276.267 C207.659,280.71 221.46,279.225 232.546,271.774 L260.116,253.243 C287.823871,234.619066 304.443,203.424282 304.443,170.039 L304.443,108.699 C304.443,99.183 296.729,91.469 287.213,91.469 L276.24,91.469 Z" id="Path" fill="#EAAC9D"></path>
            <path d="M120.757,142.773 C130.479,163.415 131.316,190.86 119.111,196.607 C106.907,202.355 86.283,184.229 76.561,163.587 C66.839,142.945 73.121,130.616 85.325,124.868 C97.53,119.121 111.036,122.131 120.757,142.773 Z" id="Path" fill="#FFCBBE"></path>
            <path d="M472.046,302.999 C428.736,259.689 358.265,259.689 314.956,302.999 C271.647,346.309 271.646,416.779 314.956,460.089 C336.611,481.744 365.056,492.571 393.501,492.571 C421.946,492.571 450.391,481.744 472.046,460.089 C515.355,416.779 515.355,346.309 472.046,302.999 L472.046,302.999 Z M339.676,327.72 C354.053,313.343 373.168,305.425 393.501,305.425 C407.87,305.425 421.623,309.397 433.533,316.791 L328.748,421.576 C321.354,409.665 317.382,395.913 317.382,381.544 C317.382,361.212 325.299,342.097 339.676,327.72 Z M447.325,435.368 C432.948,449.745 413.833,457.663 393.5,457.663 C379.131,457.663 365.378,453.691 353.468,446.297 L458.236,341.529 C476.373,370.869 472.75,409.943 447.325,435.368 L447.325,435.368 Z" id="Shape" fill="#FBBC05"></path>
            <path d="M472.046,302.999 C470.333081,301.290121 468.565496,299.636928 466.746,298.042 C505.022,341.621 503.375,408.245 461.79,449.832 C440.135,471.487 411.69,482.314 383.245,482.314 C357.064,482.314 330.887,473.133 310,454.788 C311.594387,456.607986 313.247595,458.375589 314.957,460.088 C336.612,481.743 365.057,492.57 393.502,492.57 C421.947,492.57 450.392,481.743 472.047,460.088 C515.355,416.779 515.355,346.309 472.046,302.999 L472.046,302.999 Z" id="Path" fill="#FB7B05"></path>
            <path d="M298.394,142.773 C288.672,163.415 287.835,190.86 300.04,196.607 C312.244,202.355 332.868,184.229 342.59,163.587 C352.312,142.945 346.03,130.616 333.826,124.868 C321.621,119.121 308.115,122.131 298.394,142.773 Z" id="Path" fill="#EAAC9D"></path>
            <circle id="Oval" fill="#000000" cx="164.841" cy="150.864" r="11.469"></circle>
            <circle id="Oval" fill="#000000" transform="translate(254.258935, 150.896769) rotate(-9.250000) translate(-254.258935, -150.896769) " cx="254.258935" cy="150.896769" r="11.469"></circle>
            <path d="M440.975,315.932 C440.713153,313.660141 439.427346,311.632536 437.484,310.427 C424.318,302.255 409.109,297.934 393.501,297.934 C371.167,297.934 350.171,306.631 334.378,322.423 C318.587,338.215 309.889,359.212 309.889,381.545 C309.889,397.155 314.209,412.364 322.382,425.529 C324.755,429.567 330.805,430.273 334.044,426.875 L438.829,322.09 C440.446375,320.472244 441.236635,318.204572 440.975,315.932 L440.975,315.932 Z M330.627,409.102 C326.82341,400.412909 324.864113,391.029121 324.87297,381.544 C324.87297,363.213 332.011,345.979 344.974,333.018 C357.936,320.055 375.17,312.917 393.501,312.917 C403.061,312.917 412.434,314.888 421.059,318.671 L330.627,409.102 Z M464.61,337.59 C463.40671,335.641814 461.378358,334.351081 459.103895,334.086214 C456.829432,333.821347 454.558762,334.611449 452.94,336.231 L348.171,440.999 C346.554803,442.616567 345.765549,444.883511 346.027724,447.155048 C346.2899,449.426585 347.574814,451.454133 349.517,452.661 C362.681,460.833 377.89,465.153 393.501,465.153 C415.834,465.153 436.83,456.456 452.622,440.664 C466.003,427.284 474.505,409.55 476.563,390.73 C478.589,372.211 474.344,353.338 464.61,337.59 L464.61,337.59 Z M442.028,430.07 C429.065,443.033 411.831,450.171033 393.501,450.171033 C384.015943,450.180261 374.632147,448.221302 365.943,444.418 L456.359,354.002 C467.663,379.639 462.331,409.767 442.028,430.07 Z" id="Shape" fill="#000000"></path>
            <path d="M498.643,326.711 C497.417146,324.31835 495.003286,322.765932 492.317697,322.643029 C489.632107,322.520126 487.086545,323.845581 485.647278,326.116265 C484.208011,328.386948 484.095709,331.254719 485.353,333.631 C506.358,373.967 498.881,422.658 466.747,454.791 C447.216,474.323 421.203,485.08 393.5,485.08 C365.796,485.08 339.783,474.324 320.252,454.791 C279.863,414.403 279.863,348.685 320.252,308.297 C360.643,267.908 426.362,267.91 466.747,308.297 C469.673461,311.22096 474.415539,311.22096 477.342,308.297 C480.267064,305.370996 480.267064,300.628004 477.342,297.702 C454.98,275.341 425.205,263.026 393.5,263.026 C369.806,263.026 347.192,269.906 327.942,282.714 C313.896101,276.19532 298.958057,271.803859 283.619,269.684 L283.619,242.841 C293.613685,231.951803 301.254883,219.118091 306.065,205.142 C322.154,204.403 340.305,186.021 349.366,166.78 C359.714,144.808 355.097,126.607 337.016,118.092 C328.344,114.01 319.675,113.8 311.932,117.217 L311.932,97.49 C311.932,43.734 268.198,0 214.442,0 L204.705,0 C182.169,0 160.189,7.871 142.812,22.164 C139.663672,24.8052896 139.230667,29.4897117 141.841492,32.663349 C144.452317,35.8369862 149.132348,36.3151174 152.331,33.735 C167.032,21.642 185.633,14.983 204.706,14.983 L214.443,14.983 C255.91,14.983 290.317,45.737 296.085,85.632 C293.254404,84.5378075 290.24572,83.9770274 287.211,83.978 L131.94,83.978 C128.813,83.978 125.822,84.568 123.066,85.632 C124.539,75.457 127.887,65.615 132.98,56.685 C135.001728,53.0931856 133.742442,48.5428827 130.161747,46.5015261 C126.581051,44.4601696 122.023924,45.6945316 119.963,49.264 C111.625,63.887 107.218,80.563 107.218,97.49 L107.218,117.221 C99.47,113.806 90.79,114.014 82.134,118.091 C64.052,126.607 59.435,144.808 69.784,166.779 C78.885,186.105 97,204.426 113.087,205.146 C117.89709,219.120171 125.537573,231.952125 135.531,242.84 L135.531,269.685 C99.18,274.728 65.746,292.348 40.87,319.717 C14.515,348.715 0,386.282 0,425.497 L0,443.636 C0,450.521 5.601,456.122 12.486,456.122 L261.252,456.122 C263.238818,456.122265 265.144337,455.333122 266.54923,453.92823 C267.954122,452.523337 268.743265,450.617818 268.743,448.631 C268.743265,446.644182 267.954122,444.738663 266.54923,443.33377 C265.144337,441.928878 263.238818,441.139735 261.252,441.14 L14.983,441.14 L14.983,425.498 C14.983,354.576 66.37,295.306 135.649,284.799 C137.569,317.757 164.98,343.985 198.411,343.985 L220.742,343.985 C254.171,343.985 281.581,317.76 283.503,284.805 C294.096556,286.416908 304.471857,289.231072 314.428,293.193 C312.797796,294.652891 311.207219,296.156437 309.658,297.702 C287.297,320.064 274.982,349.839 274.982,381.544 C274.982,413.249 287.297,443.024 309.658,465.386 C332.02,487.747 361.795,500.062 393.501,500.062 C425.206,500.062 454.981,487.747 477.343,465.386 C495.516,447.212 507.076,424.169 510.775,398.744 C514.349,374.179 510.04,348.597 498.643,326.711 L498.643,326.711 Z M330.634,131.646 C334.423,133.431 345.954,138.861 335.813,160.396 C329.392,174.031 318.315,185.157 310.272,188.878 C311.375327,182.65895 311.931455,176.355163 311.934,170.039 L311.934,135.431 C317.435,129.445 323.389,128.235 330.634,131.646 L330.634,131.646 Z M131.94,98.961 L287.212,98.961 C292.582,98.961 296.951031,103.33 296.951031,108.7 L296.951031,170.039 C296.976382,200.93587 281.593524,229.81089 255.937,247.026 L228.367,265.557 C216.952,273.228 202.202,273.23 190.785,265.557 L163.216,247.026 C137.559095,229.811119 122.175842,200.936059 122.200969,170.039 L122.200969,108.7 C122.200969,103.33 126.57,98.961 131.94,98.961 Z M83.339,160.396 C73.196,138.862 84.729,133.431 88.518,131.646 C95.762,128.235 101.706,129.435 107.218,135.42 L107.218,170.039 C107.218,176.397 107.786,182.674 108.869,188.815 C101.129,185.228 90.172,174.905 83.339,160.396 Z M220.741,329.001 L198.41,329.001 C172,329.001 150.514,307.515 150.514,281.105 L150.514,256.368 C152.63,258.121 179.48,275.953 182.427,277.991 C190.673,283.533 200.124,286.305 209.576,286.305 C219.028,286.305 228.479,283.534 236.725,277.991 C239.802,275.864 266.41,258.199 268.639,256.368 L268.639,281.105 C268.637,307.515 247.151,329.001 220.741,329.001 Z" id="Shape" fill="#000000"></path>
            <path d="M191.449,221.06 L227.701,221.06 C229.687818,221.060265 231.593337,220.271122 232.99823,218.86623 C234.403122,217.461337 235.192,215.555818 235.192,213.569 C235.192,211.582182 234.403122,209.676663 232.99823,208.27177 C231.593337,206.866878 229.687818,206.077735 227.701,206.078 L191.449,206.078 C187.311835,206.078 183.958,209.431835 183.958,213.569 C183.958,217.706165 187.311835,221.06 191.449,221.06 L191.449,221.06 Z" id="Path" fill="#000000"></path>
        </g>
    </g>
</svg>