<?xml version="1.0" encoding="UTF-8"?>
<svg width="512px" height="512px" viewBox="0 0 512 512" version="1.1" xmlns="http://www.w3.org/2000/svg" xmlns:xlink="http://www.w3.org/1999/xlink">
    <title>allSkins</title>
    <g id="Page-1" stroke="none" stroke-width="1" fill="none" fill-rule="evenodd">
        <g id="allSkins" fill="#000000">
            <path d="M256,0 C114.517333,0 0,114.498259 0,256 C0,397.482667 114.498259,512 256,512 C397.482667,512 512,397.503749 512,256 C512,114.517333 397.503749,0 256,0 Z M256,481.882353 C131.448471,481.882353 30.1176471,380.551529 30.1176471,256 C30.1176471,131.448471 131.448471,30.1176471 256,30.1176471 C380.551529,30.1176471 481.882353,131.448471 481.882353,256 C481.882353,380.551529 380.551529,481.882353 256,481.882353 Z" id="Shape" fill-rule="nonzero"></path>
            <g id="OWN" transform="translate(78.000000, 204.000000)" stroke="#000000" stroke-linecap="round" stroke-width="0.25">
                <path d="M163.521595,91.7000908 L180.59899,17.6846875 C180.8952,16.3524102 181.481574,15.7451818 182.072482,15.7210135 C182.085075,15.7207508 182.097672,15.7207508 182.110264,15.7210135 C182.505576,15.7151063 182.874789,15.9176989 183.082013,16.2542265 C183.305682,16.5759669 183.479478,17.0472487 183.621538,17.6846875 L201.152316,90.7937798 C201.669969,93.005815 202.493471,95.1349696 203.599068,97.119831 C206.511293,102.205747 211.107077,104.841601 217.020692,104.841601 C219.512732,104.886318 221.974715,104.292451 224.17204,103.116589 C228.346178,100.81607 231.066471,96.3283193 232.284558,90.3406242 L250.268718,1.82424389 L234.853724,1.82424389 L218.531966,86.5643281 C218.32341,88.0280205 217.96826,88.9841787 217.319924,89.4358237 C217.008327,89.6436488 216.639454,89.748762 216.265055,89.7364168 C215.590606,89.7551237 214.958969,89.4070879 214.614744,88.8270847 C214.258083,88.3014243 213.976986,87.5461651 213.695889,86.5643281 L196.316239,14.3615469 C195.917951,12.5175981 195.32367,10.7214657 194.543515,9.00373801 C193.627683,7.04006405 192.506317,5.45855125 191.196043,4.23201028 C188.719236,1.97953073 185.456423,0.789405318 182.110264,0.917932828 C175.158404,0.917932828 170.020073,5.14738445 168.055417,14.5125987 L151.280276,86.5643281 C151.211442,86.9410402 151.120098,87.3132941 151.006736,87.6790907 C150.748308,88.5008128 150.409783,89.0627256 150.004761,89.4146764 C149.647754,89.7282258 149.186271,89.8968848 148.711111,89.8874687 C148.107601,89.889261 147.545005,89.5827509 147.219483,89.0748098 C146.822018,88.5280021 146.519764,87.697217 146.293072,86.5643281 L128.611168,1.82424389 L113.196174,1.82424389 L132.691607,91.2469353 C133.169585,93.5438633 134.026048,95.7454598 135.226014,97.7618013 C137.974719,102.391976 143.024933,105.162042 148.408856,104.992653 C155.662971,104.992653 161.556939,100.158994 163.521595,91.7000908 Z M282.912234,103.028979 L282.912234,17.2315319 C282.910512,17.0256109 282.921616,16.8197823 282.945482,16.6152404 C283.034647,15.9098283 283.309699,15.5170935 283.880961,15.434015 C283.9606,15.4233005 284.040899,15.4182527 284.121253,15.4189098 C284.822485,15.4189098 285.133807,15.9385282 285.416415,16.9807859 C285.438912,17.0641493 285.460575,17.1477355 285.4814,17.2315319 L327.948197,96.9869053 C330.819617,102.424772 335.806821,104.841601 341.549662,104.841601 C346.80197,104.914157 351.58796,101.83852 353.701816,97.0322209 C354.528483,95.1621991 355,92.9749684 355,90.4916761 L355,1.82424389 L340.340643,1.82424389 L340.340643,88.0748466 C340.340643,88.8693793 340.224275,89.1986723 339.787517,89.2681561 C339.72051,89.2784564 339.6528,89.2835068 339.585006,89.2832613 C339.40859,89.2870455 339.2331,89.256786 339.06815,89.1941407 C338.539205,88.9826681 338.276243,88.3814818 337.922605,87.3195873 L295.30468,7.71526579 C292.43326,2.42845126 288.201693,0.0116217663 282.00547,0.0116217663 C276.420161,-0.223851255 271.310304,3.13802502 269.318325,8.35874664 C268.588648,10.3273782 268.227489,12.4133694 268.252877,14.5125987 L268.252877,103.028979 L282.912234,103.028979 Z M52.1407076,104.841601 C78.1861859,105.113643 100.280285,85.7877185 103.46357,59.9489933 C103.807431,57.4056551 103.979785,54.8420142 103.977403,52.2755596 C104.111862,38.2131147 98.5503443,24.6940997 88.5578751,14.7935552 C78.8244015,5.30705351 65.7352355,0.0483788252 52.1407076,0.16267361 C37.404737,0.0233070828 23.3050521,6.15543569 13.3629302,17.0276119 C4.66124816,26.696786 -0.105068591,39.2707485 0.00175757187,52.2755596 C0.00175757187,81.7820268 22.2900253,104.456419 51.3971608,104.835559 C51.644994,104.839191 51.8928482,104.841205 52.1407076,104.841601 Z M16.1572757,57.1756814 C17.9135195,75.7716197 33.4534516,90.0291154 52.1407076,90.1895724 C62.9375583,90.1835623 73.1317814,85.2148867 79.78493,76.7157479 C85.2481957,69.7460218 88.182963,61.1293192 88.1090268,52.2755596 C88.10953,50.8198685 88.0323454,49.3651867 87.8778019,47.917714 C86.3125117,29.31158 70.8212582,14.962144 52.1407076,14.8146514 C42.1178291,14.7977573 32.5511039,18.9999897 25.7856018,26.3913157 C19.3367197,33.463243 15.7956326,42.7072201 15.8701337,52.2755596 C15.8689815,53.913158 15.9651731,55.5493781 16.1572757,57.1756814 L16.1572757,57.1756814 Z" id="Shape"></path>
            </g>
        </g>
    </g>
</svg>