<svg xmlns="http://www.w3.org/2000/svg" version="1.1" xmlns:xlink="http://www.w3.org/1999/xlink" xmlns:svgjs="http://svgjs.com/svgjs" width="512" height="512" x="0" y="0" viewBox="0 0 512.002 512.002" style="enable-background:new 0 0 512 512" xml:space="preserve" class=""><g><circle cx="433.377" cy="25.865" r="17.782" style="" fill="#f44321" data-original="#f44321" class=""></circle><circle cx="255.936" cy="116.418" r="17.782" style="" fill="#04c051" data-original="#04c051" class=""></circle><circle cx="167.227" cy="223.87" r="17.782" style="" fill="#00a8e2" data-original="#00a8e2"></circle><circle cx="78.494" cy="176.266" r="17.781" style="" fill="#485360" data-original="#485360" class=""></circle><path d="m390.054 503.854 100.006-.018c7.639-.001 13.826-6.192 13.825-13.833-.001-7.635-6.193-13.827-13.83-13.826l-101.084.016-113.984.022-37.972.007-63.112.013-151.953.024c-7.638.002-13.827 6.193-13.827 13.834.001 7.635 6.193 13.826 13.832 13.825l151.954-.025 63.114-.013 37.971-.006 86.46-.015" style="" fill="#d6ccc5" data-original="#d6ccc5"></path><path d="m477.778 211.694-.013-61.56c-.003-10.596-8.594-19.185-19.189-19.183l-50.357.008c-10.596.003-19.185 8.595-19.183 19.191l.056 326.044 88.728-.017-.041-236.093" style="" fill="#f44321" data-original="#f44321" class=""></path><path d="m389.093 476.195-.031-189.913c-.002-10.596-8.594-19.186-19.19-19.184l-50.357.01c-10.597.002-19.185 8.592-19.183 19.188l.032 189.914 88.729-.015z" style="" fill="#fe9900" data-original="#fe9900" class=""></path><path d="m300.365 476.209-.04-235.52c-.003-10.596-8.595-19.184-19.189-19.182l-50.359.009c-10.595.001-19.183 8.593-19.181 19.189l.042 235.519 88.727-.015z" style="" fill="#04c051" data-original="#04c051" class=""></path><path d="m211.64 476.224-.023-128.086c-.002-10.596-8.594-19.185-19.189-19.182l-50.357.008c-10.596.002-19.185 8.593-19.183 19.189l.022 128.088 88.73-.017z" style="" fill="#1cc0f9" data-original="#1cc0f9"></path><path d="m122.91 476.241-.03-175.707c-.001-10.597-8.593-19.185-19.188-19.184l-50.357.011c-10.597 0-19.185 8.592-19.183 19.188l.03 175.707 88.728-.015z" style="" fill="#485360" data-original="#485360" class=""></path><path d="M33.984 490.114c-.002-7.639 6.187-13.831 13.826-13.832l151.956-.026 63.111-.012 37.972-.006 113.984-.023 75.767-.013c-.183-.006-.36-.027-.543-.026l-101.084.016-113.984.022-37.972.006-63.112.013-151.955.026c-7.638.002-13.827 6.193-13.827 13.834.001 7.635 6.193 13.826 13.832 13.825l25.315-.004c-7.385-.288-13.286-6.346-13.286-13.8z" style="" fill="#bcb8b5" data-original="#bcb8b5"></path><path d="M414.898 150.172c-.002-10.596 8.586-19.188 19.183-19.19l25.032-.004c-.181-.004-.356-.026-.537-.026l-50.357.008c-10.596.003-19.185 8.595-19.183 19.191l.056 326.044 25.862-.007-.056-326.016z" style="" fill="#c6281c" data-original="#c6281c"></path><path d="M326.194 286.318c-.002-10.596 8.585-19.186 19.183-19.187l25.043-.005c-.183-.005-.362-.026-.548-.027l-50.357.01c-10.597.002-19.185 8.592-19.183 19.188l.032 189.914 25.861-.004-.031-189.889z" style="" fill="#ef7a06" data-original="#ef7a06"></path><path d="M237.459 240.728c-.002-10.596 8.584-19.189 19.181-19.191l25.033-.002c-.18-.005-.355-.027-.536-.027l-50.359.009c-10.595.001-19.183 8.593-19.181 19.189l.042 235.519 25.861-.003-.041-235.494z" style="" fill="#02a544" data-original="#02a544"></path><path d="M148.749 348.177c-.002-10.596 8.586-19.187 19.183-19.189l25.04-.004c-.181-.005-.36-.026-.545-.026l-50.357.008c-10.596.002-19.185 8.593-19.183 19.189l.022 128.088 25.861-.004-.021-128.062z" style="" fill="#00a8e2" data-original="#00a8e2"></path><path d="M60.013 300.573c-.002-10.596 8.585-19.189 19.183-19.19l25.041-.004c-.183-.005-.362-.028-.546-.028l-50.357.011c-10.597 0-19.185 8.592-19.183 19.188l.03 175.707 25.862-.004-.03-175.68z" style="" fill="#364351" data-original="#364351" class=""></path><circle cx="344.678" cy="162.007" r="17.782" style="" fill="#fe9900" data-original="#fe9900" class=""></circle><path d="M490.054 468.094h-4.151l-.04-228.011a8.083 8.083 0 0 0-16.166.002l.04 228.011-47.923.01-24.638.004-.009-47.978-.023-133.851-.001-.032-.024-136.101c-.001-6.122 4.979-11.104 11.101-11.106l50.358-.008c6.122-.001 11.102 4.979 11.104 11.102l.013 61.56a8.083 8.083 0 0 0 16.166-.004l-.013-61.56c-.004-15.035-12.237-27.264-27.268-27.264h-.004l-50.36.008c-15.036.004-27.266 12.24-27.263 27.276l.019 111.235a27.094 27.094 0 0 0-11.103-2.371l-50.358.01c-3.89 0-7.652.818-11.101 2.357l-.003-20.694c-.003-15.032-12.236-27.263-27.273-27.263l-50.358.009c-7.286.001-14.131 2.839-19.282 7.99-5.148 5.151-7.983 12-7.982 19.283l.015 82.538a27.106 27.106 0 0 0-11.102-2.371l-50.358.008a27.105 27.105 0 0 0-11.104 2.375l-.004-22.723c-.002-15.036-12.237-27.267-27.272-27.266l-50.356.011c-7.286 0-14.132 2.838-19.283 7.988-5.149 5.152-7.985 12.001-7.983 19.284l.029 167.625h-4.15C9.861 468.18.034 478.013.036 490.095a21.77 21.77 0 0 0 6.42 15.492 21.77 21.77 0 0 0 15.497 6.416l339.499-.059a8.082 8.082 0 0 0 8.081-8.084 8.082 8.082 0 0 0-8.085-8.082l-339.497.059a5.706 5.706 0 0 1-4.064-1.683 5.704 5.704 0 0 1-1.685-4.061 5.757 5.757 0 0 1 5.747-5.75l12.231-.002 88.727-.015 34.406-.006 178.822-.031 52.957-.009 23.736-.004 77.225-.013a5.753 5.753 0 0 1 5.747 5.744c0 3.169-2.577 5.749-5.744 5.749l-100.005.018a8.083 8.083 0 0 0-8.082 8.084 8.083 8.083 0 0 0 8.084 8.082l100.006-.018c12.082-.002 21.91-9.833 21.907-21.917.001-12.086-9.829-21.914-21.912-21.911zm-178.388-189.65a11.033 11.033 0 0 1 7.851-3.254l50.358-.01c6.115 0 11.091 4.971 11.103 11.082l.031 181.848-72.561.013-.014-80.35-.017-101.488c0-2.96 1.153-5.746 3.249-7.841zm-88.736-45.592a11.029 11.029 0 0 1 7.849-3.253l50.36-.009c6.122 0 11.102 4.979 11.103 11.1l.008 45.591v.015l.031 181.831-72.559.013-.022-117.348-.019-110.089c0-2.966 1.153-5.754 3.249-7.851zm-80.858 104.195 50.361-.008c6.119 0 11.099 4.979 11.1 11.1l.022 120.003-39.623.008-32.939.005-.02-120.005c-.003-6.12 4.978-11.102 11.099-11.103zm-99.837-36.501c0-2.966 1.153-5.754 3.25-7.85a11.026 11.026 0 0 1 7.851-3.253l50.356-.011c6.122-.001 11.104 4.979 11.104 11.102l.024 135.035.005 32.589-72.56.012-.03-167.624z" style="" fill="#231f20" data-original="#231f20" class=""></path><path d="M78.495 202.129h.003c6.897-.001 13.166-2.721 17.807-7.137l45.456 24.386a26.095 26.095 0 0 0-.394 4.495c.001 14.259 11.604 25.859 25.863 25.859h.006c14.261-.003 25.862-11.607 25.861-25.869a25.695 25.695 0 0 0-4.001-13.785l57.439-69.573a25.717 25.717 0 0 0 9.404 1.777h.004c7.062 0 13.47-2.85 18.142-7.455l45.043 23.142a25.932 25.932 0 0 0-.318 4.044c.003 14.259 11.606 25.859 25.866 25.859h.004c14.261-.003 25.862-11.608 25.859-25.869a25.735 25.735 0 0 0-5.689-16.153l61.891-94.992c2.12.564 4.343.868 6.638.868h.005c14.261-.003 25.862-11.608 25.859-25.869C459.242 11.601 447.638 0 433.376 0c-6.909.001-13.405 2.692-18.289 7.579-4.884 4.885-7.573 11.382-7.572 18.29a25.73 25.73 0 0 0 5.691 16.155l-61.89 94.99a25.786 25.786 0 0 0-6.644-.869c-7.061.001-13.469 2.851-18.14 7.456l-45.043-23.142c.208-1.318.318-2.668.318-4.044-.003-14.259-11.605-25.859-25.869-25.859-6.909.001-13.403 2.692-18.289 7.579-4.883 4.886-7.573 11.383-7.571 18.293a25.7 25.7 0 0 0 3.998 13.782l-57.44 69.574a25.731 25.731 0 0 0-9.408-1.778 25.678 25.678 0 0 0-17.817 7.13l-45.449-24.382a25.8 25.8 0 0 0 .398-4.493c-.001-14.26-11.605-25.862-25.869-25.862-14.261.003-25.862 11.607-25.859 25.867-.002 14.261 11.601 25.863 25.863 25.863zM426.519 19.008a9.635 9.635 0 0 1 6.86-2.842c5.347 0 9.698 4.35 9.698 9.696.002 5.348-4.349 9.7-9.697 9.701l-.002 8.083v-8.083c-5.347 0-9.697-4.35-9.699-9.698a9.643 9.643 0 0 1 2.84-6.857zm-81.845 133.304c5.348 0 9.7 4.35 9.7 9.698.001 5.348-4.35 9.699-9.699 9.701-5.347-.001-9.698-4.351-9.699-9.696 0-5.35 4.351-9.702 9.698-9.703zm-95.593-42.748a9.635 9.635 0 0 1 6.86-2.842c5.347 0 9.696 4.35 9.698 9.696 0 5.348-4.349 9.699-9.698 9.7l-.002 8.083v-8.083c-5.347 0-9.696-4.349-9.698-9.695a9.64 9.64 0 0 1 2.84-6.859zM160.37 217.013a9.635 9.635 0 0 1 6.86-2.842c5.347 0 9.698 4.35 9.699 9.696.001 5.348-4.35 9.699-9.699 9.7l-.002 8.083v-8.083c-5.347 0-9.695-4.349-9.696-9.696a9.64 9.64 0 0 1 2.838-6.858zm-81.876-50.447c5.348 0 9.698 4.35 9.699 9.696.001 5.348-4.35 9.699-9.699 9.701-5.347-.001-9.698-4.35-9.698-9.698-.001-5.347 4.35-9.698 9.698-9.699z" style="" fill="#231f20" data-original="#231f20" class=""></path></g></svg>