<svg xmlns="http://www.w3.org/2000/svg" version="1.1" xmlns:xlink="http://www.w3.org/1999/xlink" xmlns:svgjs="http://svgjs.com/svgjs" width="512" height="512" x="0" y="0" viewBox="0 0 512 512" style="enable-background:new 0 0 512 512" xml:space="preserve" class=""><g><g fill-rule="evenodd" clip-rule="evenodd"><path fill="#7cade0" d="M13.046 367.258c-11.559 11.571-7.81 25.53 11.246 26.469l54.272 6.88c18.801 2.36 15.052 3.156 17.296 21.038l5.737 49.469c.966 19.105 14.91 22.83 26.44 11.258l38.567-38.58 39.476-39.547c-3.436-1.279-6.958-3.213-10.139-5.942l-28.002-70.706-85.512-29.795z" data-original="#7cade0"></path><path fill="#5e9ad8" d="M134.115 419.656 99.637 454.17l1.96 16.944c.966 19.105 14.91 22.83 26.44 11.258l38.567-38.58 39.476-39.547c-3.436-1.279-6.958-3.213-10.139-5.942l-22.322-18.195z" data-original="#5e9ad8"></path><path fill="#7cade0" d="m305.906 404.246 39.504 39.547 38.539 38.58c11.559 11.571 25.503 7.847 26.469-11.258l5.708-49.469c2.244-17.883-1.505-18.679 17.324-21.038l54.244-6.88c19.085-.938 22.805-14.898 11.275-26.469l-69.835-69.91-93.322 9.467z" data-original="#7cade0"></path><path fill="#5e9ad8" d="m402.494 329.076 66.882 66.982 18.318-2.331c19.085-.938 22.805-14.898 11.275-26.469l-69.835-69.91-52.966 5.373z" data-original="#5e9ad8"></path><path fill="#e6e2e6" d="m270.69 26.663 25.986 12.282 36.806 2.36c5.226.341 16.614 4.179 23.686 14.101l17.324 23 31.467 19.247c4.487 2.729 12.808 11.429 14.456 23.54l4.686 28.43 18.971 31.728c2.698 4.52 6.021 16.092 1.874 27.549l-9.031 27.407 2.102 36.903c.312 5.26-2.102 17.058-11.076 25.303l-20.675 20.015-15.251 33.69c-2.158 4.776-9.77 14.13-21.527 17.2l-27.605 8.103-29.081 22.716c-4.146 3.241-15.194 7.96-27.065 5.203l-28.173-5.686-36.267 6.539c-5.169.938-17.154-.028-26.355-7.989l-22.322-18.195-35.159-11.116c-4.998-1.564-15.137-8.017-19.624-19.361l-11.332-26.497-25.986-26.241c-3.692-3.753-9.713-14.187-8.406-26.327l2.244-28.743-10.849-35.339c-1.562-5.032-2.045-17.087 4.714-27.236l15.308-24.393 6.759-36.362c.966-5.174 6.134-16.063 16.813-21.891l24.85-14.499 22.833-29.027c3.238-4.122 12.865-11.372 25.02-11.543l28.712-1.251 33.682-15.068c4.771-2.135 16.642-4.068 27.491 1.448z" data-original="#e6e2e6"></path><path fill="#ab9faa" d="M255.723 363.051c81.763 0 148.049-66.356 148.049-148.236 0-81.851-66.285-148.207-148.049-148.207-81.792 0-148.077 66.356-148.077 148.207 0 81.879 66.285 148.236 148.077 148.236z" data-original="#ab9faa"></path><path fill="#9c8f9a" d="M403.772 214.815c0-66.982-44.389-123.587-105.335-141.924 28.627 40.968 46.292 97.175 46.292 159.238 0 33.605-5.169 65.504-14.484 94.19a265.943 265.943 0 0 1-7.696 20.811c21.698-11.003 40.328-27.208 54.244-46.967 16.982-24.109 26.979-53.563 26.979-85.348z" data-original="#9c8f9a"></path><path fill="#cac0c9" d="M445.945 208.901c4.146-11.457.824-23.029-1.874-27.549L425.1 149.624l-4.686-28.43c-1.647-12.111-9.968-20.811-14.456-23.54l-31.467-19.247-17.324-23c-7.072-9.922-18.46-13.76-23.686-14.101l-36.806-2.36-25.985-12.283c-8.236-4.179-17.068-4.094-22.919-2.843 19.085 11.685 36.267 28.43 50.665 49.071 60.946 18.338 105.335 74.942 105.335 141.924 0 31.785-9.997 61.239-26.98 85.348-13.916 19.759-32.546 35.964-54.244 46.967-3.834 9.155-8.094 17.94-12.78 26.213-6.646 11.77-14.086 22.574-22.237 32.268 5.623 1.166 11.048.654 15.563-.512 4.8-1.251 8.634-3.241 10.707-4.862l29.081-22.716 27.605-8.103c11.758-3.07 19.369-12.424 21.527-17.2l15.251-33.69 19.993-19.389.682-.625c8.974-8.245 11.388-20.043 11.076-25.303l-2.102-36.903z" data-original="#cac0c9"></path><path fill="#e6e2e6" d="M312.778 169.241c0-13.988-5.14-25.758-15.421-35.254-10.309-9.524-23.316-14.272-39.021-14.272s-29.309 5.26-40.754 15.807c-11.474 10.519-17.21 22.858-17.21 37.016 0 12.737 5.822 19.105 17.438 19.105 7.214 0 12.411-4.066 15.563-12.253l3.294-8.728c3.919-10.548 10.508-15.807 19.795-15.807 4.714 0 8.662 1.621 11.9 4.833 3.209 3.213 4.828 7.051 4.828 11.457 0 6.113-3.465 13.988-10.366 23.569-4.232 5.686-13.433 16.774-27.576 33.264l-29.223 33.974c-4.714 5.686-7.072 10.32-7.072 13.931 0 5.032 1.761 9.126 5.311 12.254 3.522 3.156 8.037 4.719 13.547 4.719h82.246c4.856 0 8.946-1.649 12.24-4.947 3.323-3.781 4.97-7.932 4.97-12.509 0-4.407-1.732-8.33-5.197-11.799-3.777-3.298-7.924-4.947-12.496-4.947H256.69c13.348-14.926 22.379-25.388 27.093-31.359l14.853-18.878c9.428-13.532 14.142-26.581 14.142-39.176z" data-original="#e6e2e6"></path><path fill="#cac0c9" d="M298.635 208.418c9.429-13.533 14.143-26.582 14.143-39.177 0-13.988-5.14-25.758-15.421-35.254s-23.203-14.244-38.851-14.272a319.94 319.94 0 0 1 3.294 35.936c2.442.768 4.629 2.104 6.56 4.037 3.209 3.213 4.828 7.051 4.828 11.457 0 6.113-3.465 13.988-10.366 23.569a76.246 76.246 0 0 1-2.329 3.014c-3.38 34.856-12.354 67.209-25.645 95.128h65.206c4.856 0 8.946-1.649 12.24-4.947 3.323-3.781 4.97-7.932 4.97-12.509 0-4.407-1.732-8.33-5.197-11.799-3.777-3.298-7.924-4.947-12.496-4.947h-42.884c13.348-14.926 22.379-25.388 27.093-31.359z" data-original="#cac0c9"></path></g><path d="m503.282 361.445-64.75-64.818c6.14-9.153 7.538-19.087 7.252-23.916l-2.011-35.34 8.511-25.8c5.234-14.592.645-28.462-2.525-33.775l-18.154-30.36-4.416-26.793c-2.141-15.422-12.663-25.557-17.923-28.756L379.16 73.473l-16.327-21.675c-9.041-12.618-23.037-16.712-29.196-17.114l-35.208-2.258-24.478-11.569c-13.834-6.982-28.138-4.076-33.782-1.553L207.944 33.72l-27.045 1.178c-15.499.264-26.811 9.514-30.629 14.375l-21.847 27.773-23.414 13.661c-13.584 7.464-19.316 20.91-20.45 26.995l-6.467 34.791-14.426 22.988c-8.587 12.968-7.396 27.548-5.569 33.435l10.381 33.814-2.114 27.082c-1.194 11.404 2.768 21.16 6.676 27.258L8.732 361.445c-7.799 7.807-10.598 17.281-7.485 25.342 3.157 8.18 11.661 13.231 23.356 13.885l53.775 6.817c2.305.289 7.368.925 9.367 1.587.199 1.067.358 3.017.503 4.778.176 2.154.395 4.835.787 7.955l5.685 49.025c.661 11.751 5.73 20.285 13.931 23.434a18.602 18.602 0 0 0 6.701 1.231c6.287 0 12.883-3.037 18.574-8.748l21.69-21.685a7.558 7.558 0 0 0-10.687-10.688l-21.7 21.694c-3.327 3.339-6.92 4.947-9.16 4.086-1.846-.708-3.937-3.798-4.267-10.343a8.057 8.057 0 0 0-.041-.489L104.039 420c-.359-2.866-.556-5.262-.728-7.375-.488-5.978-.91-11.141-5.345-14.93-3.889-3.322-9.261-4.14-17.697-5.199l-54.042-6.851a7.426 7.426 0 0 0-.578-.051c-6.51-.321-9.59-2.405-10.302-4.249-.869-2.25.732-5.869 4.078-9.218l63.717-63.782 18.611 18.773 10.679 24.996c5.768 14.471 18.39 21.771 24.25 23.604l33.633 10.633 21.027 17.139c.808.695 1.634 1.33 2.465 1.937L169.75 429.53a7.555 7.555 0 0 0 .011 10.687 7.533 7.533 0 0 0 5.339 2.208c1.936 0 3.873-.74 5.349-2.219l27.962-28.016c3.81.944 7.377 1.299 10.324 1.299 2.005 0 3.726-.16 5.045-.399l34.692-6.255 26.535 5.355c6.734 1.544 13.084 1.156 18.489-.083l74.563 74.641c5.709 5.715 12.311 8.751 18.601 8.751 2.299 0 4.557-.406 6.714-1.236 8.197-3.152 13.262-11.685 13.921-23.431l5.648-48.951c.4-3.188.619-5.866.796-8.018.145-1.764.304-3.716.504-4.783 2.001-.664 7.081-1.3 9.404-1.591l53.737-6.816c11.697-.654 20.205-5.701 23.366-13.876 3.116-8.055.326-17.531-7.468-25.352zm-214.967 35.998a7.45 7.45 0 0 0-.215-.047l-28.053-5.662a7.572 7.572 0 0 0-2.835-.029l-36.122 6.512c-2.209.402-6.879.245-11.822-1.544a7.266 7.266 0 0 0-.581-.218c-2.566-.993-5.182-2.426-7.546-4.472a7.47 7.47 0 0 0-.169-.142l-22.227-18.118a7.575 7.575 0 0 0-2.497-1.348L141.217 361.3c-3.314-1.037-11.282-6.03-14.77-14.846a7.538 7.538 0 0 0-.078-.189l-11.283-26.412a7.574 7.574 0 0 0-1.583-2.351l-24.929-25.146c-.024-.024-.044-.051-.068-.075-.02-.02-.042-.036-.062-.056l-.797-.804c-2.472-2.513-7.252-10.734-6.244-20.105.008-.073.015-.147.021-.22l2.234-28.62a7.567 7.567 0 0 0-.309-2.806l-10.81-35.21c-1.038-3.346-1.484-12.806 3.767-20.691.038-.057.075-.114.111-.172l15.242-24.289c.506-.806.855-1.7 1.029-2.636l6.73-36.203c.643-3.448 4.65-12.029 12.932-16.55l.188-.106 24.744-14.437a7.559 7.559 0 0 0 2.131-1.855l22.741-28.908c2.16-2.751 9.665-8.473 19.075-8.605.075-.001.149-.003.224-.006l28.591-1.246a7.55 7.55 0 0 0 2.757-.652l33.536-15.002c1.631-.729 4.864-1.494 8.758-1.494 3.708 0 8.017.694 12.108 2.775.064.033.13.065.195.096l25.877 12.229a7.541 7.541 0 0 0 2.745.709l36.641 2.349c3.479.227 12.435 3.186 17.922 10.886l.118.161 17.251 22.901a7.546 7.546 0 0 0 2.093 1.9l31.349 19.175c2.983 1.814 9.555 8.601 10.833 18.001l.032.211 4.666 28.309c.154.936.483 1.834.97 2.649l18.887 31.586c1.796 3.011 4.465 12.102 1.25 20.988a4.962 4.962 0 0 0-.071.205L428.969 234a7.555 7.555 0 0 0-.368 2.796l2.093 36.792c.208 3.491-1.621 12.772-8.598 19.181a8.9 8.9 0 0 0-.144.135l-20.588 19.93a7.579 7.579 0 0 0-1.629 2.313l-15.188 33.55c-1.442 3.192-7.362 10.551-16.458 12.926l-.219.061-27.487 8.068a7.53 7.53 0 0 0-2.524 1.296l-28.96 22.62c-1.016.794-2.841 1.806-5.195 2.66-.31.084-.616.186-.916.31-3.93 1.282-9.106 2.051-14.473.805zm208.338-16.097c-.713 1.843-3.797 3.926-10.315 4.247a7.016 7.016 0 0 0-.58.051l-54.002 6.849c-8.456 1.06-13.836 1.877-17.727 5.199-4.442 3.79-4.865 8.957-5.354 14.938-.173 2.112-.369 4.506-.737 7.444l-5.684 49.257a7.927 7.927 0 0 0-.041.485c-.33 6.542-2.419 9.632-4.266 10.341-2.241.863-5.851-.742-9.196-4.091l-70.471-70.545 27.746-21.673 25.999-7.631c14.975-3.959 23.747-15.653 26.295-21.292l14.591-32.234 15.401-14.909 64.269 64.336c3.345 3.357 4.943 6.978 4.072 9.228z" fill="#000000" data-original="#000000" class=""></path><path d="M410.701 214.994c0-85.539-69.522-155.131-154.977-155.131-17.129 0-33.972 2.784-50.062 8.275a7.557 7.557 0 1 0 4.881 14.304c14.515-4.953 29.715-7.465 45.18-7.465 77.121 0 139.864 62.811 139.864 140.017 0 77.221-62.743 140.044-139.864 140.044-77.136 0-139.891-62.824-139.891-140.044 0-47.254 23.584-91.004 63.086-117.031a7.557 7.557 0 1 0-8.316-12.62c-43.759 28.832-69.884 77.3-69.884 129.651 0 85.555 69.535 155.158 155.005 155.158 85.456.001 154.978-69.603 154.978-155.158z" fill="#000000" data-original="#000000" class=""></path><path d="m229.606 223.173-29.099 33.829-.089.104c-5.991 7.225-8.78 13.165-8.78 18.695 0 7.168 2.714 13.348 7.802 17.829 4.908 4.398 11.144 6.628 18.532 6.628h81.897c6.804 0 12.867-2.47 17.535-7.142a7.35 7.35 0 0 0 .331-.353c4.531-5.157 6.827-11.025 6.827-17.443 0-6.434-2.485-12.184-7.385-17.089a6.91 6.91 0 0 0-.376-.351c-5.16-4.506-11.019-6.79-17.414-6.79h-25.899c7.382-8.408 12.78-14.77 16.115-18.995l14.789-18.797c.091-.115.178-.232.262-.352 10.246-14.704 15.44-29.282 15.44-43.33 0-16.076-5.983-29.754-17.784-40.653-11.648-10.761-26.447-16.217-43.984-16.217-17.553 0-32.93 5.969-45.687 17.726-12.997 11.916-19.587 26.191-19.587 42.428 0 16.892 9.083 26.58 24.92 26.58 5.971 0 16.841-2.214 22.568-17.089l3.294-8.728c3.562-9.585 8.619-10.814 12.627-10.814 2.688 0 4.7.808 6.502 2.596 1.771 1.773 2.597 3.702 2.597 6.068 0 2.498-1.152 8.286-8.862 19.003-4.046 5.426-13.162 16.416-27.092 32.657zm44.026-68.434c-4.684-4.648-10.461-7.005-17.172-7.005-8.721 0-20.449 3.585-26.782 20.628l-3.263 8.645c-2.49 6.467-5.53 7.359-8.444 7.359-6.36 0-9.806-1.827-9.806-11.466 0-11.993 4.805-22.227 14.703-31.302 10.031-9.245 21.63-13.739 35.458-13.739 13.806 0 24.839 3.992 33.728 12.205 8.698 8.033 12.927 17.7 12.927 29.552 0 10.845-4.241 22.456-12.604 34.513l-14.643 18.611c-4.64 5.875-13.616 16.262-26.681 30.87a7.558 7.558 0 0 0 5.634 12.594h42.702c2.632 0 4.95.919 7.275 2.89 2.493 2.581 2.786 4.783 2.786 6.226 0 2.64-.925 4.958-2.904 7.277-1.811 1.737-3.939 2.547-6.676 2.547h-81.897c-3.603 0-6.365-.906-8.494-2.813-1.885-1.66-2.726-3.674-2.726-6.53 0-.271.148-2.819 5.259-8.996l29.06-33.785c14.404-16.792 23.492-27.76 27.786-33.529l.069-.095c7.904-10.974 11.746-20.095 11.746-27.885 0-6.361-2.426-12.153-7.041-16.772z" fill="#000000" data-original="#000000" class=""></path></g></svg>