<svg xmlns="http://www.w3.org/2000/svg" version="1.1" xmlns:xlink="http://www.w3.org/1999/xlink" xmlns:svgjs="http://svgjs.com/svgjs" width="512" height="512" x="0" y="0" viewBox="0 0 512 512" style="enable-background:new 0 0 512 512" xml:space="preserve" class=""><g><path fill="#fd8087" d="m221.648 161.441-1.004.19-11.484 63.159c-15.4 84.695 12.354 171.496 74.052 231.532l12.293 11.973a28.243 28.243 0 0 0 30.973 5.632l15.721-6.88c78.873-34.476 135.416-105.95 150.816-190.645l11.484-63.159a399.146 399.146 0 0 0-282.851-51.802zm9.305 79.429c14.935 7.731 32.415 10.841 50.272 7.789 17.856-3.053 33.306-11.784 44.823-24.042 3.742 25.809-13.773 50.046-39.625 54.456-25.865 4.418-50.433-12.619-55.47-38.203zm100.801 116.101c-22.997-4.181-45.588-.412-64.971 9.367 6.862-32.943 38.787-54.589 72.092-48.533 33.286 6.052 55.549 37.551 50.375 70.801-14.69-15.975-34.509-27.455-57.496-31.635zm69.833-56.958c-22.645-13.229-30.507-42.079-17.929-64.921 6.464 15.528 17.861 29.141 33.5 38.283 15.639 9.143 33.095 12.385 49.796 10.406-13.731 22.172-42.714 29.472-65.367 16.232z" data-original="#fd8087"></path><path fill="#fe646f" d="m302.01 469.477-6.404-10.902c-26.834-45.634-38.263-111.44-32.336-181.213-16.079-5.265-28.844-18.843-32.317-36.491 10.789 5.587 22.909 8.76 35.535 8.93.7-4.712 1.481-9.439 2.34-14.162l11.484-63.159 3.419-17.836a398.155 398.155 0 0 0-62.084 6.796l-1.004.19-11.484 63.159c-15.4 84.695 12.354 171.496 74.052 231.532l12.293 11.973a28.261 28.261 0 0 0 14.629 7.529c-3.129-.569-5.982-2.714-8.123-6.346z" data-original="#fe646f"></path><path fill="#ffe177" d="m8.385 92.959-.885.529 11.17 63.215c14.979 84.771 71.165 156.524 149.866 191.392l15.696 6.956a28.226 28.226 0 0 0 30.99-5.476l12.362-11.914c61.986-59.726 90.181-146.39 75.203-231.161l-11.17-63.215A399.151 399.151 0 0 0 8.385 92.959zM92.82 122.83c25.827-4.563 50.494 12.338 55.676 37.899-14.969-7.662-32.473-10.667-50.307-7.516-17.835 3.151-33.239 11.971-44.695 24.302-3.883-25.79 13.489-50.119 39.326-54.685zm90.665 137.595c-39.638 7.004-77.492-18.941-85.45-58.165 22.974 11.748 49.836 16.369 77.21 11.532s51.017-18.382 68.593-37.295c5.965 39.576-20.706 76.922-60.353 83.928zm43.411-129.953c-17.845 3.153-33.249 11.973-44.705 24.304-3.882-25.791 13.5-50.122 39.336-54.687 25.827-4.563 50.485 12.339 55.676 37.899-14.978-7.661-32.472-10.668-50.307-7.516z" data-original="#ffe177"></path><path fill="#ffd15b" d="m191.59 353.379-9.839-7.991C134.837 307.282 97.656 237.671 81.26 158.006c-10.352 4.453-19.446 10.983-26.881 18.982-2.899-19.289 6.08-37.77 21.611-47.757l-8.262-46.756L64.8 64.629A397.418 397.418 0 0 0 9.271 92.431l-.885.529 11.17 63.215c14.979 84.771 71.165 156.524 149.866 191.392l15.696 6.956a28.159 28.159 0 0 0 16.324 1.981c-3.143.554-6.562-.457-9.852-3.125z" data-original="#ffd15b" class=""></path><path d="M508.419 206.853a403.862 403.862 0 0 0-22.285-12.697 7.5 7.5 0 0 0-7.008 13.262 389.155 389.155 0 0 1 17.07 9.577l-10.556 58.06c-14.979 82.38-69.725 151.584-146.442 185.118l-15.738 6.874c-7.736 3.389-16.655 1.766-22.72-4.136l-12.299-11.969c-28.72-27.958-50.477-62.689-63.122-100.683l7.464-7.192a266.423 266.423 0 0 0 44.24-55.83c.409.009.818.035 1.227.035 3.155 0 6.312-.268 9.433-.803 14.43-2.467 27.113-10.349 35.716-22.194 8.589-11.826 12.166-26.292 10.073-40.734a7.501 7.501 0 0 0-12.889-4.06 72.18 72.18 0 0 1-19.485 14.711 265.457 265.457 0 0 0 12.932-71.809c46.309 2.13 91.405 12.319 134.154 30.353a7.466 7.466 0 0 0 2.912.592 7.5 7.5 0 0 0 2.918-14.412c-44.546-18.792-91.546-29.377-139.808-31.536a267.127 267.127 0 0 0-4.04-42.188l-11.16-63.21a7.511 7.511 0 0 0-6.055-6.076C193.655 16.331 91.222 34.308 4.512 86.532l-.881.53a7.501 7.501 0 0 0-3.517 7.73l11.17 63.211a266.146 266.146 0 0 0 21.168 66.793 7.5 7.5 0 0 0 13.577-6.379 251.061 251.061 0 0 1-19.973-63.026l-10.27-58.115c81.311-47.824 176.605-64.653 269.347-47.59l10.261 58.116c14.571 82.457-12.726 166.369-73.018 224.464l-12.357 11.907c-6.095 5.867-15.024 7.445-22.751 4.017l-15.69-6.95c-44.845-19.863-82.618-52.16-109.236-93.4a7.501 7.501 0 0 0-12.603 8.135c28.208 43.704 68.239 77.931 115.764 98.98l15.686 6.948a35.726 35.726 0 0 0 14.509 3.088c6.02 0 11.968-1.542 17.287-4.508 13.627 38.118 35.948 72.932 64.996 101.209l12.3 11.97c6.83 6.646 15.761 10.145 24.853 10.145 4.831 0 9.709-.988 14.34-3.017l15.732-6.871c81.304-35.539 139.32-108.878 155.194-196.18l11.48-63.15a7.503 7.503 0 0 0-3.461-7.736zm-190.703 34.813c-3.92 14.892-16.183 27.001-32.09 29.919a265.37 265.37 0 0 0 8.419-18.326 87.002 87.002 0 0 0 23.671-11.593z" fill="#000000" data-original="#000000" class=""></path><path d="M420.94 266.902c-13.757-8.041-24.253-20.036-30.354-34.689a7.501 7.501 0 0 0-6.516-4.606 7.541 7.541 0 0 0-6.978 3.87c-7.041 12.782-8.784 27.581-4.91 41.67 3.882 14.115 12.98 25.957 25.619 33.344 8.642 5.051 18.283 7.639 28.058 7.638a56.06 56.06 0 0 0 13.573-1.676c14.179-3.538 26.218-12.319 33.9-24.727a7.499 7.499 0 0 0-.052-7.978 7.491 7.491 0 0 0-7.209-3.418c-15.769 1.872-31.377-1.39-45.131-9.428zm-15.57 26.639c-14.121-8.254-21.484-24.06-19.911-39.52 7.213 10.482 16.659 19.254 27.913 25.831 11.303 6.606 23.643 10.538 36.382 11.66-12.672 9.179-29.939 10.47-44.384 2.029zM340.212 310.427c-18.026-3.278-36.312.56-51.495 10.805-15.155 10.226-25.551 25.701-29.273 43.575a7.5 7.5 0 0 0 10.719 8.226c18.721-9.442 39.552-12.444 60.244-8.682 20.695 3.763 39.133 13.905 53.319 29.329a7.502 7.502 0 0 0 7.698 2.099 7.5 7.5 0 0 0 5.233-6.023c2.808-18.039-1.476-36.183-12.06-51.089-10.602-14.934-26.366-24.964-44.385-28.24zm-7.121 39.166a112.129 112.129 0 0 0-20.074-1.822 109.164 109.164 0 0 0-33.483 5.25c4.15-7.697 10.131-14.332 17.573-19.353 11.918-8.042 26.273-11.054 40.422-8.481 14.144 2.572 26.517 10.444 34.84 22.165 5.197 7.32 8.459 15.632 9.634 24.296-14.14-11.223-30.777-18.758-48.912-22.055zM132.625 124.287c-12.094-8.249-26.696-11.387-41.108-8.843-14.42 2.548-27.061 10.501-35.598 22.396-8.52 11.872-12.016 26.357-9.843 40.788a7.5 7.5 0 0 0 12.909 3.989c10.812-11.632 24.82-19.246 40.509-22.018 15.692-2.773 31.457-.42 45.591 6.803a7.5 7.5 0 0 0 10.762-8.171c-2.902-14.3-11.15-26.71-23.222-34.944zm-35.74 21.542c-12.893 2.278-24.845 7.268-35.281 14.654 3.72-15.198 16.049-27.357 32.522-30.268a40.059 40.059 0 0 1 6.982-.613c13.578 0 26.246 6.913 33.771 17.857-12.28-3.323-25.161-3.898-37.994-1.63zM179.981 161.936a7.502 7.502 0 0 0 7.708-2.059c10.812-11.632 24.82-19.246 40.509-22.018 15.691-2.775 31.456-.42 45.591 6.803a7.5 7.5 0 0 0 10.762-8.171c-2.903-14.301-11.151-26.711-23.223-34.945-12.094-8.249-26.697-11.388-41.109-8.843-14.419 2.548-27.061 10.501-35.598 22.396-8.52 11.872-12.015 26.357-9.842 40.788a7.503 7.503 0 0 0 5.202 6.049zm42.847-54.462a40.059 40.059 0 0 1 6.982-.613c13.578 0 26.247 6.913 33.772 17.857-12.28-3.324-25.161-3.898-37.995-1.631-12.893 2.278-24.846 7.268-35.282 14.655 3.72-15.197 16.05-27.357 32.523-30.268zM101.445 195.583a7.499 7.499 0 0 0-10.762 8.171c4.247 20.918 16.312 39.072 33.971 51.117 13.684 9.334 29.559 14.196 45.808 14.196 4.758 0 9.55-.417 14.326-1.261 21.093-3.727 39.586-15.362 52.072-32.761 12.464-17.367 17.578-38.556 14.399-59.664a7.5 7.5 0 0 0-12.909-3.99c-17.194 18.496-39.468 30.602-64.411 35.01-24.951 4.411-50.018.668-72.494-10.818zm135.483-2.247c-1.021 11.78-5.192 23.123-12.256 32.964a66.87 66.87 0 0 1-9.878 10.959 253.505 253.505 0 0 1 1.745-11.129l3.841-21.142a128.853 128.853 0 0 0 16.548-11.652zm-33.309 19.998-1.838 10.116a268.1 268.1 0 0 0-3.267 24.47 66.854 66.854 0 0 1-16.337 5.116c-17.212 3.041-34.636-.708-49.072-10.555-10.005-6.825-17.81-16.05-22.807-26.764 21.133 7.539 43.735 9.435 66.249 5.458a131.566 131.566 0 0 0 27.072-7.841z" fill="#000000" data-original="#000000" class=""></path></g></svg>